<svg width="22" height="22" viewBox="0 0 22 22" fill="none" xmlns="http://www.w3.org/2000/svg">
<path d="M10.998 7.59933C9.12511 7.59933 7.59666 9.12782 7.59666 11.0008C7.59666 12.8737 9.12511 14.4022 10.998 14.4022C12.871 14.4022 14.3994 12.8737 14.3994 11.0008C14.3994 9.12782 12.871 7.59933 10.998 7.59933ZM21.1996 11.0008C21.1996 9.59223 21.2124 8.19644 21.1333 6.79044C21.0542 5.15733 20.6817 3.70795 19.4875 2.51375C18.2907 1.31699 16.8439 0.946988 15.2109 0.867885C13.8023 0.788782 12.4066 0.80154 11.0006 0.80154C9.59207 0.80154 8.1963 0.788782 6.79033 0.867885C5.15725 0.946988 3.7079 1.31954 2.51372 2.51375C1.31698 3.71051 0.946986 5.15733 0.867884 6.79044C0.788782 8.19899 0.80154 9.59478 0.80154 11.0008C0.80154 12.4068 0.788782 13.8051 0.867884 15.2111C0.946986 16.8442 1.31953 18.2936 2.51372 19.4878C3.71045 20.6846 5.15725 21.0546 6.79033 21.1337C8.19885 21.2128 9.59462 21.2 11.0006 21.2C12.4091 21.2 13.8049 21.2128 15.2109 21.1337C16.8439 21.0546 18.2933 20.682 19.4875 19.4878C20.6842 18.2911 21.0542 16.8442 21.1333 15.2111C21.215 13.8051 21.1996 12.4093 21.1996 11.0008ZM10.998 16.2344C8.10189 16.2344 5.76455 13.897 5.76455 11.0008C5.76455 8.10457 8.10189 5.7672 10.998 5.7672C13.8942 5.7672 16.2315 8.10457 16.2315 11.0008C16.2315 13.897 13.8942 16.2344 10.998 16.2344ZM16.4459 6.77513C15.7697 6.77513 15.2236 6.22906 15.2236 5.55285C15.2236 4.87664 15.7697 4.33057 16.4459 4.33057C17.1221 4.33057 17.6681 4.87664 17.6681 5.55285C17.6683 5.71342 17.6368 5.87245 17.5755 6.02083C17.5141 6.16922 17.4241 6.30404 17.3106 6.41758C17.197 6.53112 17.0622 6.62114 16.9138 6.6825C16.7655 6.74385 16.6064 6.77533 16.4459 6.77513Z" fill="#665244"/>
</svg>
