<svg width="46" height="32" viewBox="0 0 46 32" fill="none" xmlns="http://www.w3.org/2000/svg">
<rect width="46" height="32" rx="4" fill="#FCFBFA"/>
<path fill-rule="evenodd" clip-rule="evenodd" d="M25.8061 17.2325H25.0387C24.963 17.2284 24.9033 17.1646 24.9023 17.0866V13.0196C24.9105 12.9423 24.9748 12.8844 25.0502 12.8863H25.7645C25.8295 12.8885 25.8853 12.9349 25.9008 12.9999V13.6219H25.9158C26.1312 13.0658 26.4331 12.8008 26.9647 12.8008C27.3095 12.8008 27.6462 12.9291 27.8636 13.2797C28.0647 13.6051 28.0647 14.1527 28.0647 14.5461V17.1049C28.0534 17.1795 27.9902 17.2341 27.9168 17.2325H27.1426C27.0731 17.2294 27.0158 17.1757 27.0063 17.1049V14.8967C27.0063 14.8621 27.0066 14.8263 27.0069 14.7896C27.0106 14.3549 27.0153 13.8014 26.5244 13.8014C26.3268 13.8108 26.1526 13.938 26.0787 14.1268C25.971 14.375 25.9567 14.6232 25.9567 14.8981V17.0866C25.9537 17.1692 25.887 17.2341 25.8067 17.2325H25.8061ZM8.32764 17.2406H7.55818C7.4868 17.2367 7.42886 17.1798 7.42188 17.1066V13.0395C7.42446 12.958 7.48984 12.8936 7.56909 12.8944H8.28675C8.36029 12.8986 8.419 12.959 8.42306 13.0346V13.5655H8.43737C8.62411 13.0515 8.97647 12.8123 9.45082 12.8123C9.92518 12.8123 10.2339 13.0515 10.45 13.5655C10.5942 13.1699 10.9345 12.8851 11.3403 12.8204C11.7461 12.7558 12.1543 12.9213 12.408 13.2534C12.6174 13.5462 12.6107 13.954 12.6044 14.3371V14.3371V14.3372V14.3372V14.3372V14.3372V14.3372V14.3373C12.6033 14.4018 12.6023 14.4657 12.6023 14.5282V17.094C12.6016 17.1337 12.5855 17.1715 12.5576 17.199C12.5297 17.2265 12.4923 17.2415 12.4537 17.2406H11.6842C11.6085 17.2365 11.5489 17.1727 11.5479 17.0947V14.9391C11.5479 14.9065 11.5484 14.8644 11.549 14.8167C11.5516 14.6144 11.5553 14.3092 11.5261 14.1776C11.4689 13.9041 11.2964 13.827 11.0736 13.827C10.8693 13.8334 10.6884 13.9644 10.6135 14.1601C10.5401 14.3515 10.5408 14.6596 10.5412 14.8879L10.5413 14.9391V17.094C10.5406 17.1336 10.5246 17.1713 10.4969 17.1988C10.4691 17.2263 10.4319 17.2413 10.3934 17.2406H9.62189C9.54634 17.2361 9.48689 17.1725 9.48558 17.0947V14.9391C9.48558 14.895 9.48623 14.8488 9.48689 14.8013C9.49304 14.3617 9.50065 13.8172 9.0085 13.8172C8.47615 13.8172 8.47657 14.4369 8.47689 14.9054L8.4769 14.9391V17.094C8.47619 17.1337 8.46011 17.1715 8.43222 17.199C8.40434 17.2265 8.36695 17.2415 8.32833 17.2406H8.32764ZM6.03503 17.2906C6.09349 17.3244 6.16632 17.3169 6.217 17.2716L6.22314 17.273C6.37648 17.1321 6.65592 16.8825 6.81335 16.7471C6.87333 16.6945 6.86242 16.6069 6.81335 16.5368C6.79837 16.5155 6.7833 16.4947 6.76831 16.4741C6.64213 16.3 6.52233 16.1348 6.52233 15.8026V14.5691C6.52233 14.5294 6.52253 14.49 6.52272 14.4508V14.4507V14.4507V14.4506V14.4506V14.4505V14.4505V14.4504V14.4504C6.52506 13.9741 6.52719 13.5382 6.18156 13.2053C5.88714 12.9136 5.39779 12.8112 5.02294 12.8112C4.29028 12.8112 3.47243 13.0924 3.30137 14.0236C3.29428 14.0613 3.30251 14.1003 3.32414 14.1316C3.34578 14.1629 3.37893 14.1836 3.41587 14.1891L4.15602 14.2725C4.2283 14.2613 4.28421 14.2014 4.29233 14.1267C4.35639 13.8062 4.61811 13.6513 4.91185 13.6513C5.07133 13.6513 5.2499 13.7109 5.34395 13.8567C5.44047 14.0032 5.43898 14.1975 5.43763 14.3721C5.43747 14.3923 5.43732 14.4122 5.43732 14.4317V14.5341C5.36733 14.5422 5.29397 14.5499 5.21841 14.5579C4.81204 14.6005 4.34201 14.6499 3.98972 14.809C3.51265 15.0235 3.17188 15.4604 3.17188 16.1034C3.17188 16.9266 3.67622 17.3383 4.32436 17.3383C4.87164 17.3383 5.17084 17.2057 5.59407 16.7626C5.61448 16.7931 5.63289 16.8214 5.65025 16.848L5.65026 16.848C5.75122 17.003 5.81697 17.1039 6.03503 17.2906ZM5.44189 15.3794L5.44186 15.341V15.1706C4.88505 15.1706 4.29688 15.2933 4.29688 15.9679C4.29688 16.3115 4.46931 16.5429 4.76441 16.5429C4.98114 16.5429 5.17538 16.4054 5.29806 16.1824C5.44239 15.9184 5.44216 15.671 5.44189 15.3794ZM16.9043 16.534C16.8893 16.5128 16.8742 16.492 16.8592 16.4713C16.733 16.2972 16.6133 16.1321 16.6133 15.8006V14.5664C16.6133 14.524 16.6135 14.4819 16.6137 14.4401C16.6164 13.9662 16.6189 13.5338 16.2725 13.2026C15.9774 12.9108 15.488 12.8085 15.1139 12.8085C14.3812 12.8085 13.5634 13.089 13.3916 14.0209C13.3843 14.0588 13.3926 14.0981 13.4144 14.1295C13.4362 14.161 13.4696 14.1818 13.5068 14.1871L14.2531 14.2698C14.3253 14.2583 14.3811 14.1986 14.3894 14.124C14.4542 13.8035 14.7145 13.6485 15.0082 13.6485C15.167 13.6485 15.349 13.7088 15.4403 13.8547C15.5375 14.0006 15.536 14.195 15.5347 14.3696C15.5345 14.3897 15.5344 14.4095 15.5344 14.429V14.5293C15.4658 14.5371 15.394 14.5446 15.3201 14.5523C14.9125 14.5946 14.4398 14.6438 14.0868 14.8034C13.6043 15.018 13.2655 15.4549 13.2655 16.0986C13.2655 16.9211 13.7699 17.3327 14.418 17.3327C14.9633 17.3327 15.2645 17.2002 15.6871 16.757C15.7072 16.7871 15.7253 16.8149 15.7424 16.8412L15.7424 16.8412C15.8448 16.9981 15.9097 17.0976 16.1287 17.285C16.1871 17.3187 16.2597 17.3114 16.3107 17.2668C16.464 17.1266 16.7434 16.8762 16.9009 16.7409C16.967 16.6925 16.9561 16.607 16.9043 16.534ZM15.3914 16.1786C15.2694 16.4009 15.0745 16.5383 14.8585 16.5383C14.5634 16.5383 14.3909 16.3069 14.3909 15.964C14.3909 15.2888 14.9791 15.1668 15.5359 15.1668V15.3379L15.5359 15.3693C15.5361 15.6646 15.5363 15.9131 15.3914 16.1786ZM17.557 13.6049V13.0257C17.5552 12.986 17.5698 12.9474 17.5973 12.9195C17.6247 12.8916 17.6623 12.8769 17.7008 12.8791H20.2314C20.2699 12.8778 20.3072 12.8927 20.3347 12.9204C20.3623 12.948 20.3776 12.9861 20.3772 13.0257V13.5242C20.3772 13.6077 20.3091 13.7171 20.1871 13.8896L18.8758 15.8151C19.3624 15.8032 19.877 15.8782 20.3193 16.1342C20.401 16.179 20.453 16.2655 20.4556 16.3607V16.9834C20.4556 17.0689 20.365 17.1678 20.2689 17.1166C19.4294 16.6727 18.4331 16.6745 17.5952 17.1215C17.5073 17.1699 17.4153 17.0724 17.4153 16.9869V16.3943C17.4072 16.2547 17.44 16.1157 17.5093 15.9953L19.0285 13.7514H17.7035C17.665 13.753 17.6274 13.7382 17.5998 13.7105C17.5721 13.6828 17.5566 13.6446 17.557 13.6049ZM22.5521 12.8066C23.6951 12.8066 24.3132 13.8164 24.3132 15.0996C24.3132 16.3401 23.6317 17.3239 22.5521 17.3239C21.431 17.3239 20.8203 16.3141 20.8203 15.0568C20.8203 13.7996 21.4385 12.8066 22.5521 12.8066ZM22.5609 13.6367C21.9932 13.6367 21.957 14.4319 21.957 14.9284L21.957 14.9448C21.957 15.4478 21.9568 16.4851 22.5534 16.4851C23.1565 16.4851 23.179 15.6296 23.179 15.1079C23.179 14.7657 23.1647 14.3548 23.0639 14.0301C22.9773 13.7496 22.8049 13.6367 22.5609 13.6367ZM30.931 13.3963C31.1244 13.2208 31.3454 13.0804 31.5846 12.9811C31.8105 12.8885 32.0515 12.8409 32.2948 12.8409C32.5365 12.8363 32.7763 12.8861 32.9974 12.9868C33.2058 13.085 33.3883 13.2331 33.5297 13.4187C33.6837 13.6243 33.7976 13.8586 33.865 14.1087C33.9468 14.4051 33.9863 14.7122 33.9823 15.0203C33.986 15.3349 33.9437 15.6484 33.8568 15.9501C33.7841 16.2061 33.6651 16.4457 33.5059 16.6562C33.358 16.8476 33.1703 17.0024 32.9565 17.1092C32.7319 17.2165 32.4864 17.2695 32.2389 17.2642C31.7762 17.2721 31.3283 17.0963 30.9882 16.7733V18.7199C30.9947 18.7657 30.9798 18.812 30.948 18.8447C30.9162 18.8774 30.8712 18.8928 30.8267 18.8861H30.3496C30.3051 18.8928 30.2601 18.8774 30.2283 18.8447C30.1965 18.812 30.1816 18.7657 30.1881 18.7199V13.1305C30.1819 13.0848 30.1969 13.0387 30.2287 13.006C30.2604 12.9734 30.3052 12.9579 30.3496 12.9643H30.7047C30.7511 12.9599 30.7971 12.9751 30.8323 13.0065C30.8674 13.0379 30.8886 13.0827 30.8908 13.1305L30.931 13.3963ZM32.0692 13.5044C31.6779 13.5075 31.2982 13.6417 30.9876 13.8865V16.2005C31.332 16.467 31.6871 16.6 32.0528 16.5995C32.7953 16.5995 33.1665 16.0853 33.1665 15.0569C33.1665 14.0284 32.8007 13.5107 32.0692 13.5037V13.5044ZM34.9889 13.7082L35.0495 13.6872C35.4334 13.5655 35.8324 13.5017 36.2341 13.4978C36.5571 13.4983 36.7831 13.5593 36.9122 13.6809C37.0412 13.8024 37.1057 14.0128 37.1057 14.3119V14.8575C36.7733 14.7698 36.432 14.7227 36.0889 14.7173C35.6154 14.7168 35.2388 14.8372 34.9589 15.0784C34.679 15.3196 34.5391 15.6422 34.5391 16.0461C34.54 16.4224 34.6536 16.7227 34.8798 16.9471C35.1061 17.1715 35.4128 17.2837 35.7999 17.2837C36.0393 17.2827 36.2763 17.2351 36.4985 17.1435C36.7328 17.0493 36.9497 16.9146 37.1398 16.7452L37.1807 17.0193C37.1827 17.0649 37.2029 17.1076 37.2364 17.1374C37.2699 17.1672 37.3138 17.1816 37.3579 17.1771H37.7055C37.75 17.1835 37.7947 17.1681 37.8265 17.1354C37.8582 17.1028 37.8732 17.0567 37.867 17.0109V14.1738C37.8666 13.7194 37.7453 13.3845 37.5031 13.169C37.2609 12.9535 36.8842 12.8457 36.3731 12.8457C36.1187 12.8457 35.8648 12.8692 35.6145 12.9158C35.3961 12.9517 35.1823 13.0131 34.9773 13.0988C34.9277 13.1161 34.8833 13.1463 34.8485 13.1865C34.822 13.2359 34.8106 13.2923 34.8158 13.3485V13.5708C34.8158 13.671 34.8526 13.7208 34.9207 13.7208C34.944 13.7205 34.967 13.7162 34.9889 13.7082ZM36.551 16.5544C36.3727 16.6229 36.1844 16.6592 35.9941 16.6617C35.7842 16.6622 35.6227 16.6056 35.5096 16.492C35.3964 16.3784 35.3399 16.2164 35.3399 16.0061C35.3394 15.5241 35.6436 15.2831 36.2524 15.2831C36.3967 15.2834 36.5408 15.2933 36.6839 15.3126C36.8264 15.3311 36.9679 15.3573 37.1078 15.3911V16.2389C36.9387 16.3724 36.751 16.4787 36.551 16.5544ZM39.9919 18.7367C40.1827 18.5703 40.3511 18.2961 40.4969 17.9142L42.273 13.2637C42.3023 13.2007 42.3214 13.1332 42.3296 13.0638C42.3296 12.9979 42.2921 12.9643 42.2164 12.9643H41.7646C41.7025 12.9581 41.6402 12.9726 41.5867 13.0056C41.5411 13.058 41.5082 13.1207 41.4906 13.1887L40.4001 16.4107L39.2694 13.1887C39.2519 13.1207 39.2189 13.058 39.1734 13.0056C39.1199 12.9726 39.0575 12.9581 38.9955 12.9643H38.5109C38.4359 12.9643 38.3984 12.9979 38.3984 13.0638C38.4062 13.1332 38.4251 13.2007 38.4543 13.2637L40.0096 17.2192L39.8563 17.64C39.7649 17.906 39.6627 18.0888 39.5496 18.1883C39.4133 18.2958 39.2438 18.3488 39.0725 18.3377C38.9997 18.3393 38.9268 18.3336 38.8551 18.3209C38.8151 18.312 38.7746 18.3066 38.7338 18.3047C38.6527 18.3047 38.6124 18.3573 38.6124 18.4625V18.6785C38.6079 18.738 38.622 18.7975 38.6527 18.8482C38.6862 18.8885 38.7317 18.9163 38.7821 18.9274C38.9322 18.9682 39.087 18.9877 39.2422 18.9856C39.5512 18.9861 39.801 18.9031 39.9919 18.7367Z" fill="#232F3E"/>
<path fill-rule="evenodd" clip-rule="evenodd" d="M18.8212 19.8269C18.9964 19.3788 19.3862 18.3747 19.2008 18.1314H19.2022C19.0176 17.8875 17.9817 18.0155 17.5157 18.073L17.5147 18.0732C17.3729 18.0907 17.3511 17.9638 17.4786 17.8719C18.306 17.2738 19.6616 17.4449 19.819 17.6468C19.9764 17.8488 19.7761 19.247 19.0012 19.9146C18.8819 20.0169 18.7681 19.9622 18.8212 19.8269ZM13.2522 20.5185C15.0542 20.5185 17.1526 19.9329 18.5982 18.8355V18.8376C18.8374 18.6525 18.6323 18.3804 18.3883 18.487C16.8104 19.1718 15.1166 19.5292 13.4042 19.5389C11.0283 19.5389 8.73016 18.8685 6.87092 17.7557C6.70803 17.6582 6.58671 17.83 6.72302 17.9555C8.51295 19.6171 10.8414 20.5311 13.2522 20.5185Z" fill="#FF9900"/>
</svg>
