<svg width="47" height="32" viewBox="0 0 47 32" fill="none" xmlns="http://www.w3.org/2000/svg">
<rect width="47" height="32" rx="4" fill="#FCFBFA"/>
<path fill-rule="evenodd" clip-rule="evenodd" d="M14.244 11.9416C13.9021 12.3454 13.3551 12.6639 12.8082 12.6184C12.7398 12.0724 13.0076 11.4923 13.321 11.134C13.6628 10.7189 14.2611 10.4231 14.7454 10.4004C14.8024 10.9691 14.5802 11.5265 14.244 11.9416ZM14.7395 12.7264C14.2576 12.6987 13.8179 12.871 13.4628 13.0102C13.2342 13.0998 13.0407 13.1757 12.8934 13.1757C12.7282 13.1757 12.5267 13.0958 12.3004 13.006C12.0039 12.8885 11.6649 12.754 11.3095 12.7605C10.4947 12.7719 9.73689 13.2325 9.32096 13.9662C8.4663 15.4335 9.09875 17.606 9.92492 18.8003C10.3295 19.3918 10.8138 20.0401 11.4519 20.0174C11.7327 20.0068 11.9346 19.9213 12.1436 19.8327C12.3842 19.7308 12.6342 19.625 13.0245 19.625C13.4013 19.625 13.6403 19.7281 13.8697 19.827C14.0879 19.9212 14.2974 20.0115 14.6085 20.006C15.2694 19.9946 15.6853 19.4145 16.0899 18.8231C16.5264 18.1883 16.7183 17.5687 16.7474 17.4747L16.7508 17.4638C16.7501 17.4631 16.7447 17.4607 16.7352 17.4563L16.7352 17.4563C16.5893 17.3896 15.4738 16.8799 15.4631 15.5131C15.4524 14.3659 16.3479 13.7846 16.4888 13.6931C16.4974 13.6875 16.5032 13.6838 16.5058 13.6818C15.936 12.8401 15.0472 12.7491 14.7395 12.7264ZM19.3164 19.9445V11.0781H22.6496C24.3703 11.0781 25.5725 12.2611 25.5725 13.99C25.5725 15.7189 24.3475 16.9132 22.604 16.9132H20.6953V19.9445H19.3164ZM20.6953 12.2363H22.285C23.4815 12.2363 24.1652 12.8733 24.1652 13.9937C24.1652 15.1141 23.4815 15.7567 22.2793 15.7567H20.6953V12.2363ZM30.1247 18.8798C29.76 19.5736 28.9567 20.0116 28.0906 20.0116C26.8086 20.0116 25.9141 19.2495 25.9141 18.1007C25.9141 16.9632 26.7801 16.3092 28.3812 16.2125L30.1019 16.1101V15.621C30.1019 14.8988 29.629 14.5063 28.7857 14.5063C28.0906 14.5063 27.5835 14.8646 27.4809 15.4106H26.2388C26.2787 14.2618 27.3613 13.4258 28.8256 13.4258C30.4039 13.4258 31.4295 14.2504 31.4295 15.53V19.9433H30.1532V18.8798H30.1247ZM28.4596 18.9595C27.7246 18.9595 27.2574 18.6069 27.2574 18.0666C27.2574 17.5093 27.7075 17.1851 28.5679 17.1339L30.1006 17.0372V17.5377C30.1006 18.368 29.394 18.9595 28.4596 18.9595ZM35.6618 20.2904C35.1091 21.843 34.4766 22.3549 33.132 22.3549C33.0294 22.3549 32.6876 22.3435 32.6078 22.3208V21.2573C32.6933 21.2686 32.9041 21.28 33.0123 21.28C33.622 21.28 33.9639 21.0241 34.1747 20.3587L34.3 19.9663L31.9639 13.5113H33.4055L35.0293 18.7492H35.0578L36.6817 13.5113H38.0833L35.6618 20.2904Z" fill="black"/>
</svg>
