<svg width="46" height="32" viewBox="0 0 46 32" fill="none" xmlns="http://www.w3.org/2000/svg">
<rect width="46" height="32" rx="4" fill="#FCFBFA"/>
<path fill-rule="evenodd" clip-rule="evenodd" d="M22.1402 19.2938V15.6849V15.6842H24.0757C24.8736 15.6847 25.5443 15.4318 26.0875 14.9255C26.6366 14.4449 26.9435 13.754 26.9279 13.0339C26.9388 12.3178 26.6324 11.632 26.0875 11.153C25.549 10.6439 24.8247 10.3662 24.0757 10.3815H20.9688V19.2938H22.1402ZM22.1403 14.5897V11.4786V11.4779H24.1049C24.5427 11.4659 24.9648 11.6381 25.264 11.9508C25.565 12.2368 25.7348 12.6296 25.7348 13.0399C25.7348 13.4501 25.565 13.8429 25.264 14.1289C24.9612 14.4351 24.5404 14.6023 24.1049 14.5897H22.1403Z" fill="#5F6368"/>
<path fill-rule="evenodd" clip-rule="evenodd" d="M31.678 13.6764C31.1769 13.2242 30.4935 12.998 29.6276 12.998C28.5153 12.998 27.6754 13.3963 27.1079 14.1927L28.1396 14.8277C28.5209 14.2882 29.0387 14.0185 29.6931 14.0185C30.1103 14.0137 30.514 14.1628 30.8238 14.4359C31.1327 14.6855 31.3104 15.0576 31.3077 15.4492V15.7109C30.8575 15.462 30.2846 15.3376 29.589 15.3376C28.7741 15.3386 28.1226 15.5253 27.6346 15.898C27.1467 16.2706 26.9027 16.7724 26.9027 17.4034C26.892 17.9779 27.147 18.5266 27.5968 18.8967C28.0596 19.2949 28.6346 19.494 29.322 19.494C30.1272 19.494 30.7724 19.1456 31.2575 18.4487H31.3084V19.2949H32.4289V15.5367C32.4294 14.7488 32.1791 14.1287 31.678 13.6764ZM28.5018 18.1751C28.2564 18.0023 28.1117 17.7241 28.1133 17.4285C28.1133 17.0964 28.2726 16.8198 28.5935 16.5922C28.9112 16.368 29.308 16.2559 29.7839 16.2559C30.4373 16.2559 30.9466 16.3981 31.3119 16.6825C31.3119 17.1632 31.1179 17.5821 30.7298 17.9391C30.3803 18.2807 29.9064 18.473 29.4121 18.4738C29.0825 18.4798 28.7609 18.3743 28.5018 18.1751Z" fill="#5F6368"/>
<path fill-rule="evenodd" clip-rule="evenodd" d="M38.8626 13.1973L34.9509 21.983H33.7416L35.1932 18.9089L32.6211 13.1973H33.8944L35.7535 17.5777H35.779L37.5871 13.1973H38.8626Z" fill="#5F6368"/>
<path fill-rule="evenodd" clip-rule="evenodd" d="M17.4058 14.9083C17.4062 14.5593 17.376 14.211 17.3155 13.8672H12.375V15.8391H15.2047C15.0877 16.4755 14.7097 17.0376 14.1584 17.395V18.675H15.8472C16.836 17.784 17.4058 16.4663 17.4058 14.9083Z" fill="#4285F4"/>
<path fill-rule="evenodd" clip-rule="evenodd" d="M12.3761 19.9116C13.7898 19.9116 14.9802 19.4579 15.8483 18.6757L14.1595 17.3957C13.6894 17.7071 13.0841 17.8849 12.3761 17.8849C11.0096 17.8849 9.84979 16.9846 9.43505 15.7715H7.69531V17.0906C8.58457 18.82 10.3957 19.9115 12.3761 19.9116Z" fill="#34A853"/>
<path fill-rule="evenodd" clip-rule="evenodd" d="M9.4343 15.7711C9.21504 15.1354 9.21504 14.447 9.4343 13.8113V12.4922H7.69456C6.95077 13.9387 6.95077 15.6437 7.69456 17.0902L9.4343 15.7711Z" fill="#FBBC04"/>
<path fill-rule="evenodd" clip-rule="evenodd" d="M12.3761 11.6969C13.1232 11.685 13.8451 11.9609 14.3858 12.4649L15.881 11.0036C14.9329 10.1332 13.6768 9.65541 12.3761 9.67026C10.3957 9.67035 8.58457 10.7618 7.69531 12.4912L9.43505 13.8103C9.84979 12.5972 11.0096 11.6969 12.3761 11.6969Z" fill="#EA4335"/>
</svg>
