<svg width="46" height="32" viewBox="0 0 46 32" fill="none" xmlns="http://www.w3.org/2000/svg">
<rect width="46" height="32" rx="4" fill="#FCFBFA"/>
<path fill-rule="evenodd" clip-rule="evenodd" d="M30.4453 16.0898H30.4646H30.502H30.5393H30.5767H30.614H30.6514H30.6888H30.7261H30.7635H30.8008H30.8382H30.8755H30.9129H30.9502H30.9876H31.0249H31.0623H31.0996H31.137H31.1743H31.2117H31.249H31.2864H31.3238H31.3611H31.3984H31.4358H31.4732H31.5105H31.5479H31.5852H31.6226H31.6599H31.6973H31.7346H31.772H31.8093H31.8467H31.8841H31.9214H31.9588H31.9961H32.0335H32.0708H32.1082H32.1455H32.1829H32.2202H32.2576H32.2949H32.3323H32.3696H32.407H32.4443H32.4817H32.5191H32.5564H32.5938H32.6311H32.6685H32.6995L32.7058 16.09C32.7174 16.0903 32.7299 16.0908 32.7432 16.0915C32.7552 16.0922 32.7677 16.093 32.7805 16.094C32.7928 16.0949 32.8054 16.0959 32.8179 16.0971C32.8305 16.0982 32.843 16.0995 32.8552 16.1008C32.8681 16.1023 32.8807 16.1038 32.8926 16.1054C32.906 16.1072 32.9186 16.1091 32.9299 16.111C32.9382 16.1124 32.9457 16.1138 32.9525 16.1153L32.9673 16.1186C32.9798 16.1215 32.9922 16.1247 33.0046 16.1281C33.0172 16.1316 33.0296 16.1353 33.042 16.1392C33.0545 16.1432 33.067 16.1475 33.0793 16.152C33.0919 16.1565 33.1043 16.1613 33.1167 16.1664C33.1293 16.1715 33.1417 16.1769 33.1541 16.1826C33.1666 16.1883 33.1791 16.1943 33.1914 16.2006C33.204 16.207 33.2164 16.2137 33.2288 16.2206C33.2414 16.2277 33.2538 16.2351 33.2661 16.2428C33.2787 16.2507 33.2912 16.2588 33.3035 16.2672C33.3161 16.2759 33.3286 16.2848 33.3408 16.294C33.3535 16.3036 33.366 16.3135 33.3782 16.3237C33.3909 16.3343 33.4033 16.3452 33.4155 16.3564C33.4283 16.3681 33.4408 16.3801 33.4529 16.3925C33.4657 16.4056 33.4781 16.4191 33.4902 16.4328C33.5031 16.4475 33.5155 16.4625 33.5276 16.478C33.5406 16.4946 33.553 16.5117 33.565 16.5293C33.578 16.5485 33.5905 16.5682 33.6023 16.5884C33.6156 16.6112 33.6281 16.6347 33.6396 16.6588C33.6534 16.6873 33.6659 16.7168 33.677 16.747C33.692 16.7877 33.7045 16.8299 33.7144 16.8734C33.7315 16.9489 33.7406 17.0283 33.7406 17.1113C33.7406 17.1947 33.7315 17.2745 33.7144 17.3502C33.7045 17.3938 33.692 17.4361 33.677 17.4768C33.6659 17.5072 33.6534 17.5367 33.6396 17.5653C33.6281 17.5894 33.6156 17.6129 33.6023 17.6358C33.5905 17.656 33.5781 17.6757 33.565 17.695C33.553 17.7125 33.5405 17.7296 33.5276 17.7462C33.5155 17.7617 33.5031 17.7767 33.4902 17.7914C33.4781 17.8052 33.4657 17.8186 33.4529 17.8316C33.4408 17.844 33.4283 17.856 33.4155 17.8677C33.4033 17.8789 33.3909 17.8898 33.3782 17.9003C33.366 17.9105 33.3535 17.9204 33.3408 17.9299C33.3286 17.9391 33.3161 17.948 33.3035 17.9566C33.2912 17.965 33.2787 17.9731 33.2661 17.9809C33.2538 17.9886 33.2414 17.9959 33.2288 18.003C33.2165 18.0099 33.204 18.0165 33.1914 18.0229C33.1791 18.0291 33.1666 18.0351 33.1541 18.0408C33.1417 18.0464 33.1293 18.0518 33.1167 18.0569C33.1043 18.0619 33.0919 18.0667 33.0793 18.0712C33.067 18.0756 33.0545 18.0798 33.042 18.0837C33.0296 18.0876 33.0172 18.0912 33.0046 18.0946C32.9922 18.098 32.9798 18.1011 32.9673 18.104L32.9525 18.1073C32.9457 18.1089 32.9382 18.1104 32.9299 18.1118C32.9186 18.1138 32.906 18.1158 32.8926 18.1176C32.8807 18.1192 32.8681 18.1208 32.8552 18.1222C32.843 18.1235 32.8305 18.1248 32.8179 18.1259C32.8054 18.127 32.7928 18.1281 32.7805 18.1289C32.7677 18.1299 32.7552 18.1307 32.7432 18.1313C32.7299 18.132 32.7174 18.1325 32.7058 18.1327L32.6858 18.133H32.6685H32.6311H32.5938H32.5564H32.5191H32.4817H32.4443H32.407H32.3696H32.3323H32.2949H32.2576H32.2202H32.1829H32.1455H32.1082H32.0708H32.0335H31.9961H31.9588H31.9214H31.8841H31.8467H31.8093H31.772H31.7346H31.6973H31.6599H31.6226H31.5852H31.5479H31.5105H31.4732H31.4358H31.3984H31.3611H31.3238H31.2864H31.249H31.2117H31.1743H31.137H31.0996H31.0623H31.0249H30.9876H30.9502H30.9129H30.8755H30.8382H30.8008H30.7635H30.7261H30.6888H30.6514H30.614H30.5767H30.5393H30.502H30.4646H30.4453V16.0898ZM33.453 13.7758C33.468 13.8444 33.4761 13.917 33.4761 13.9935C33.4761 14.0699 33.468 14.1425 33.453 14.211C33.4434 14.2551 33.4308 14.2974 33.4157 14.338C33.4046 14.3676 33.3921 14.3962 33.3783 14.4239C33.3668 14.4471 33.3543 14.4696 33.341 14.4914C33.3292 14.5107 33.3167 14.5294 33.3036 14.5475C33.2916 14.5641 33.2792 14.5801 33.2663 14.5957C33.2542 14.6102 33.2418 14.6243 33.2289 14.6379C33.2168 14.6508 33.2044 14.6632 33.1916 14.6753C33.1794 14.6867 33.1669 14.6978 33.1542 14.7086C33.142 14.7189 33.1295 14.7288 33.1168 14.7385C33.1046 14.7477 33.0922 14.7567 33.0795 14.7654C33.0672 14.7737 33.0548 14.7818 33.0421 14.7896C33.0298 14.7971 33.0174 14.8044 33.0048 14.8114C32.9925 14.8182 32.9801 14.8248 32.9674 14.831C32.9551 14.8372 32.9426 14.843 32.9301 14.8486C32.9178 14.8541 32.9053 14.8593 32.8927 14.8643C32.8804 14.8691 32.8679 14.8737 32.8554 14.8781C32.843 14.8824 32.8306 14.8865 32.818 14.8903C32.8057 14.894 32.7932 14.8975 32.7807 14.9008C32.7683 14.904 32.7559 14.907 32.7433 14.9097C32.731 14.9124 32.7185 14.9149 32.706 14.9171L32.6969 14.9187C32.6896 14.92 32.68 14.9214 32.6686 14.9229C32.6576 14.9242 32.6449 14.9257 32.6313 14.9271C32.6194 14.9283 32.6069 14.9295 32.5939 14.9305C32.5817 14.9316 32.5691 14.9325 32.5566 14.9333C32.544 14.9341 32.5314 14.9347 32.5192 14.9352C32.5063 14.9358 32.4937 14.9361 32.4819 14.9362L32.476 14.9362H32.4445H32.4072H32.3698H32.3325H32.2951H32.2578H32.2204H32.1831H32.1457H32.1084H32.071H32.0336H31.9963H31.959H31.9216H31.8842H31.8469H31.8096H31.7722H31.7348H31.6975H31.6601H31.6228H31.5854H31.5481H31.5107H31.4734H31.436H31.3987H31.3613H31.324H31.2866H31.2493H31.2119H31.1746H31.1372H31.0999H31.0625H31.0251H30.9878H30.9505H30.9131H30.8757H30.8384H30.8011H30.7637H30.7263H30.689H30.6516H30.6143H30.5769H30.5396H30.5022H30.4649H30.4453V13.0508H30.4649H30.5022H30.5396H30.5769H30.6143H30.6516H30.689H30.7263H30.7637H30.8011H30.8384H30.8757H30.9131H30.9505H30.9878H31.0251H31.0625H31.0999H31.1372H31.1746H31.2119H31.2493H31.2866H31.324H31.3613H31.3987H31.436H31.4734H31.5107H31.5481H31.5854H31.6228H31.6601H31.6975H31.7348H31.7722H31.8096H31.8469H31.8842H31.9216H31.959H31.9963H32.0336H32.071H32.1084H32.1457H32.1831H32.2204H32.2578H32.2951H32.3325H32.3698H32.4072H32.4445H32.4819H32.4976L32.5192 13.0515C32.5314 13.052 32.544 13.0527 32.5566 13.0535C32.5691 13.0543 32.5817 13.0553 32.5939 13.0563C32.6069 13.0573 32.6194 13.0585 32.6313 13.0596C32.6449 13.061 32.6576 13.0623 32.6686 13.0636C32.68 13.0649 32.6896 13.0661 32.6969 13.0671L32.706 13.0688C32.7185 13.071 32.731 13.0736 32.7433 13.0763C32.7559 13.0791 32.7683 13.0821 32.7807 13.0853C32.7932 13.0886 32.8057 13.0921 32.818 13.0959C32.8306 13.0998 32.843 13.1039 32.8554 13.1082C32.8679 13.1126 32.8804 13.1172 32.8927 13.1221C32.9053 13.1271 32.9178 13.1324 32.9301 13.1378C32.9426 13.1435 32.9551 13.1493 32.9674 13.1555C32.9801 13.1618 32.9925 13.1683 33.0048 13.1751C33.0174 13.1821 33.0298 13.1894 33.0421 13.197C33.0548 13.2048 33.0672 13.2128 33.0795 13.2212C33.0922 13.2299 33.1046 13.2389 33.1168 13.2482C33.1295 13.2578 33.142 13.2678 33.1542 13.2781C33.1669 13.2888 33.1794 13.3 33.1916 13.3114C33.2044 13.3235 33.2168 13.3359 33.2289 13.3487C33.2418 13.3624 33.2542 13.3765 33.2663 13.391C33.2792 13.4065 33.2916 13.4226 33.3036 13.4392C33.3167 13.4573 33.3292 13.476 33.341 13.4953C33.3543 13.5171 33.3668 13.5396 33.3783 13.5628C33.3921 13.5905 33.4046 13.6192 33.4157 13.6488C33.4308 13.6894 33.4434 13.7317 33.453 13.7758ZM38.0872 4H38.1025L38.1025 23.3638C38.1025 23.4795 38.0971 23.594 38.0872 23.7071C38.0784 23.8066 38.0659 23.9051 38.0498 24.0023C38.039 24.0677 38.0265 24.1324 38.0125 24.1966C38.001 24.2488 37.9886 24.3007 37.9751 24.3521C37.9634 24.3964 37.9509 24.4405 37.9377 24.4842C37.9258 24.5237 37.9135 24.5631 37.9004 24.6021C37.8885 24.6374 37.8759 24.6725 37.863 24.7074C37.851 24.7399 37.8385 24.7722 37.8257 24.8043C37.8136 24.8344 37.8011 24.8644 37.7883 24.8941C37.7762 24.9223 37.7637 24.9504 37.7509 24.9782C37.7388 25.0047 37.7263 25.0311 37.7136 25.0573C37.7014 25.0824 37.689 25.1074 37.6762 25.1322C37.664 25.1559 37.6515 25.1796 37.6389 25.2031C37.6267 25.2257 37.6141 25.248 37.6015 25.2703C37.5893 25.2919 37.5768 25.3133 37.5642 25.3346C37.5519 25.3554 37.5394 25.376 37.5268 25.3965C37.5145 25.4165 37.5021 25.4364 37.4894 25.4562C37.4772 25.4752 37.4646 25.4942 37.452 25.513C37.4398 25.5314 37.4273 25.5495 37.4147 25.5677C37.4024 25.5855 37.3899 25.6033 37.3773 25.6209C37.365 25.638 37.3526 25.6551 37.34 25.6721C37.3277 25.6886 37.3152 25.705 37.3026 25.7213C37.2903 25.7374 37.2778 25.7534 37.2653 25.7693C37.2529 25.7849 37.2405 25.8003 37.2279 25.8157C37.2156 25.8307 37.2031 25.8456 37.1906 25.8605C37.1781 25.8751 37.1658 25.8899 37.1532 25.9044C37.1409 25.9186 37.1283 25.9325 37.1158 25.9465C37.1035 25.9603 37.091 25.974 37.0785 25.9877C37.0661 26.0011 37.0537 26.0145 37.0411 26.0278C37.0288 26.0408 37.0163 26.0536 37.0037 26.0665C36.9913 26.0792 36.979 26.092 36.9664 26.1046C36.9541 26.1169 36.9415 26.129 36.929 26.1411C36.9166 26.1532 36.9042 26.1653 36.8917 26.1772C36.8793 26.1888 36.8668 26.2004 36.8543 26.2119C36.8419 26.2233 36.8295 26.2347 36.8169 26.246C36.8046 26.2571 36.7921 26.2681 36.7796 26.2791C36.7672 26.29 36.7547 26.3007 36.7422 26.3114C36.7298 26.322 36.7174 26.3325 36.7049 26.343C36.6925 26.3532 36.68 26.3634 36.6675 26.3735C36.6551 26.3836 36.6427 26.3936 36.6302 26.4036C36.6178 26.4134 36.6053 26.423 36.5928 26.4326C36.5804 26.4422 36.568 26.4518 36.5555 26.4612C36.5431 26.4705 36.5306 26.4796 36.5181 26.4888C36.5056 26.4979 36.4932 26.5071 36.4807 26.5161C36.4684 26.5249 36.4558 26.5336 36.4434 26.5423C36.4309 26.5509 36.4185 26.5597 36.406 26.5682C36.3936 26.5766 36.3811 26.5848 36.3686 26.5931C36.3562 26.6014 36.3438 26.6096 36.3313 26.6178C36.3189 26.6258 36.3064 26.6337 36.2939 26.6415C36.2815 26.6494 36.2691 26.6572 36.2566 26.6649C36.2442 26.6725 36.2317 26.68 36.2192 26.6875L36.1818 26.7097C36.1694 26.7169 36.157 26.7242 36.1445 26.7313C36.1321 26.7383 36.1196 26.7453 36.1071 26.7522C36.0947 26.7591 36.0823 26.7661 36.0698 26.7728C36.0574 26.7795 36.0449 26.786 36.0324 26.7926C36.0199 26.7991 36.0076 26.8059 35.995 26.8123C35.9827 26.8186 35.9701 26.8247 35.9577 26.8309C35.9452 26.8371 35.9329 26.8434 35.9203 26.8495C35.9079 26.8555 35.8954 26.8614 35.883 26.8673L35.8456 26.8847L35.8083 26.9017C35.7958 26.9072 35.7834 26.9126 35.7709 26.918C35.7584 26.9234 35.7461 26.929 35.7335 26.9342C35.7212 26.9395 35.7087 26.9444 35.6962 26.9495C35.6837 26.9546 35.6713 26.9598 35.6588 26.9648C35.6464 26.9697 35.6339 26.9744 35.6215 26.9792C35.609 26.984 35.5966 26.9887 35.5841 26.9934L35.5467 27.0072C35.5343 27.0117 35.5218 27.016 35.5094 27.0203C35.4969 27.0247 35.4846 27.0292 35.472 27.0335C35.4596 27.0377 35.4471 27.0416 35.4347 27.0456L35.3973 27.0577C35.3849 27.0617 35.3724 27.0654 35.3599 27.0693L35.3226 27.0804C35.3101 27.084 35.2977 27.0878 35.2852 27.0913C35.2728 27.0948 35.2603 27.0981 35.2479 27.1014C35.2354 27.1048 35.223 27.1083 35.2105 27.1115L35.1732 27.121L35.1358 27.1301L35.0984 27.139C35.086 27.1418 35.0736 27.1444 35.0611 27.1471C35.0486 27.1499 35.0362 27.1527 35.0237 27.1553L34.9864 27.1628L34.949 27.1699C34.9365 27.1722 34.9241 27.1747 34.9116 27.1769C34.8992 27.1791 34.8867 27.1811 34.8743 27.1831L34.8369 27.1893L34.7996 27.1949L34.7622 27.2002C34.7497 27.2019 34.7373 27.2038 34.7248 27.2054C34.7124 27.207 34.6999 27.2082 34.6875 27.2097C34.675 27.2111 34.6626 27.2126 34.6501 27.214C34.6377 27.2153 34.6253 27.2167 34.6128 27.2179C34.6004 27.2191 34.5879 27.2201 34.5754 27.2212C34.5629 27.2223 34.5505 27.2235 34.538 27.2245C34.5256 27.2255 34.5131 27.2262 34.5007 27.2271L34.4633 27.2295C34.4509 27.2302 34.4385 27.2311 34.426 27.2317C34.4136 27.2323 34.401 27.2326 34.3886 27.2331L34.3513 27.2346L34.3139 27.2355C34.3015 27.2358 34.289 27.2358 34.2765 27.236L34.2392 27.2365L34.2315 27.2366H34.2018H34.1645H34.1271H34.0897H34.0524H34.015H33.9776H33.9403H33.9029H33.8656H33.8282H33.7909H33.7535H33.7162H33.6788H33.6414H33.6041H33.5667H33.5294H33.492H33.4546H33.4173H33.3799H33.3425H33.3052H33.2678H33.2305H33.1931H33.1557H33.1184H33.081H33.0437H33.0063H32.969H32.9316H32.8942H32.8569H32.8195H32.7822H32.7448H32.7074H32.6701H32.6327H32.5954H32.558H32.5206H32.4833H32.4459H32.4086H32.3712H32.3339H32.2965H32.2591H32.2218H32.1844H32.1471H32.1097H32.0723H32.035H31.9976H31.9603H31.9229H31.8855H31.8482H31.8108H31.7735H31.7361H31.6987H31.6614H31.624H31.5867H31.5493H31.512H31.4746H31.4372H31.3999H31.3625H31.3252H31.2878H31.2504H31.2131H31.1757H31.1383H31.101H31.0636H31.0263H30.9889H30.9516H30.9142H30.8769H30.8395H30.8021H30.7648H30.7274H30.6901H30.6527H30.6153H30.578H30.5406H30.5032H30.4659H30.4285H30.3912H30.3538H30.3165H30.2791H30.2417H30.2044H30.167H30.1297H30.0923H30.055H30.0176H29.9802H29.9429H29.9055H29.8681H29.8308H29.7934H29.7561H29.7187H29.6813H29.644H29.6066H29.5693H29.5319H29.4946H29.4572H29.4199H29.3825H29.3451H29.3078H29.2704H29.233H29.1957H29.1583H29.121H29.0836H29.0462H29.0089H28.9715H28.9342H28.8968H28.8595H28.8221H28.7847H28.7474H28.71H28.6727H28.6353H28.5547V19.3413H28.6353H28.6727H28.71H28.7474H28.7847H28.8221H28.8595H28.8968H28.9342H28.9715H29.0089H29.0462H29.0836H29.121H29.1583H29.1957H29.233H29.2704H29.3078H29.3451H29.3825H29.4199H29.4572H29.4946H29.5319H29.5693H29.6066H29.644H29.6813H29.7187H29.7561H29.7934H29.8308H29.8681H29.9055H29.9429H29.9802H30.0176H30.055H30.0923H30.1297H30.167H30.2044H30.2417H30.2791H30.3165H30.3538H30.3912H30.4285H30.4659H30.5032H30.5406H30.578H30.6153H30.6527H30.6901H30.7274H30.7648H30.8021H30.8395H30.8769H30.9142H30.9516H30.9889H31.0263H31.0636H31.101H31.1383H31.1757H31.2131H31.2504H31.2878H31.3252H31.3625H31.3999H31.4372H31.4746H31.512H31.5493H31.5867H31.624H31.6614H31.6987H31.7361H31.7735H31.8108H31.8482H31.8855H31.9229H31.9603H31.9976H32.035H32.0723H32.1097H32.1471H32.1844H32.2218H32.2591H32.2965H32.3339H32.3712H32.4086H32.4459H32.4833H32.5206H32.558H32.5954H32.6327H32.6701H32.7074H32.7448H32.7822H32.8195H32.8569H32.8942H32.9316H32.969H33.0063H33.0437H33.081H33.1184H33.1557H33.1931H33.2305H33.2678H33.3052H33.3425H33.3799H33.4173H33.4546H33.492H33.5294H33.5667H33.6041H33.6414H33.6788H33.7162H33.7535H33.7909H33.8282H33.8656H33.9029H33.9403H33.9776H34.015H34.0524H34.0897H34.1271H34.1645H34.2018H34.2392H34.2765H34.3139H34.3513H34.3886H34.426H34.4633H34.5007H34.538H34.5578L34.5754 19.3411L34.6128 19.3408L34.6501 19.34C34.6626 19.3397 34.6751 19.3395 34.6875 19.3391C34.7 19.3387 34.7124 19.3381 34.7248 19.3375L34.7622 19.3358L34.7996 19.3335L34.8369 19.331L34.8743 19.328L34.9116 19.3246C34.9241 19.3234 34.9366 19.3223 34.949 19.321C34.9615 19.3197 34.9739 19.3182 34.9864 19.3167L35.0237 19.3122C35.0362 19.3106 35.0487 19.309 35.0611 19.3073C35.0736 19.3056 35.086 19.3036 35.0984 19.3018C35.1109 19.2999 35.1234 19.298 35.1358 19.296L35.1732 19.2897L35.2105 19.283C35.223 19.2807 35.2355 19.2784 35.2479 19.276C35.2604 19.2735 35.2728 19.2708 35.2852 19.2682L35.3226 19.2601C35.3351 19.2573 35.3476 19.2546 35.3599 19.2516C35.3725 19.2487 35.3849 19.2456 35.3973 19.2425C35.4098 19.2394 35.4223 19.2362 35.4347 19.233C35.4471 19.2297 35.4596 19.2264 35.472 19.2229C35.4845 19.2195 35.497 19.2159 35.5094 19.2123C35.5219 19.2086 35.5344 19.205 35.5467 19.2012L35.5841 19.1895C35.5967 19.1855 35.609 19.1813 35.6215 19.1771C35.634 19.1729 35.6464 19.1687 35.6588 19.1643C35.6713 19.1599 35.6838 19.1555 35.6962 19.151C35.7087 19.1464 35.7211 19.1415 35.7335 19.1368C35.7461 19.1319 35.7585 19.127 35.7709 19.122C35.7834 19.117 35.7959 19.112 35.8083 19.1068C35.8208 19.1015 35.8332 19.0961 35.8456 19.0907C35.8581 19.0852 35.8706 19.0795 35.883 19.0738C35.8955 19.068 35.908 19.0623 35.9203 19.0563C35.9328 19.0504 35.9453 19.0443 35.9577 19.0382C35.9703 19.0319 35.9827 19.0255 35.995 19.019C36.0076 19.0125 36.02 19.0057 36.0324 18.999C36.045 18.9921 36.0574 18.9852 36.0698 18.9782C36.0823 18.9711 36.0948 18.9639 36.1071 18.9565C36.1197 18.9491 36.1322 18.9416 36.1445 18.9339C36.1571 18.9261 36.1695 18.9182 36.1818 18.9101C36.1944 18.902 36.2069 18.8937 36.2192 18.8853C36.2318 18.8767 36.2442 18.8681 36.2566 18.8593C36.2692 18.8503 36.2816 18.8413 36.2939 18.8321C36.3065 18.8228 36.319 18.8133 36.3313 18.8037C36.3439 18.7938 36.3564 18.7839 36.3686 18.7739C36.3813 18.7635 36.3937 18.7531 36.406 18.7425C36.4186 18.7317 36.4311 18.7207 36.4434 18.7095C36.456 18.6981 36.4684 18.6865 36.4807 18.6748C36.4934 18.6627 36.5058 18.6505 36.5181 18.6381C36.5308 18.6252 36.5432 18.6123 36.5555 18.5991C36.5681 18.5856 36.5806 18.5718 36.5928 18.5579C36.6055 18.5434 36.618 18.5288 36.6302 18.5139C36.6429 18.4985 36.6553 18.4828 36.6675 18.467C36.6802 18.4504 36.6928 18.4337 36.7049 18.4167C36.7177 18.3986 36.7301 18.3802 36.7422 18.3617C36.7551 18.3421 36.7676 18.3222 36.7796 18.302C36.7925 18.2804 36.805 18.2584 36.8169 18.2362C36.8299 18.212 36.8425 18.1875 36.8543 18.1626C36.8675 18.1348 36.88 18.1066 36.8917 18.078C36.9051 18.0451 36.9176 18.0118 36.929 17.9779C36.9431 17.9362 36.9555 17.8936 36.9664 17.8502C36.9823 17.7869 36.9948 17.7219 37.0037 17.6552C37.0146 17.5744 37.0203 17.4914 37.0203 17.406C37.0203 17.3229 37.0146 17.2421 37.0037 17.1637C36.9948 17.0993 36.9823 17.0365 36.9664 16.9754C36.9555 16.9337 36.943 16.8929 36.929 16.8528C36.9176 16.8199 36.9051 16.7875 36.8917 16.7557C36.88 16.7282 36.8675 16.701 36.8543 16.6743C36.8425 16.6503 36.83 16.6266 36.8169 16.6032C36.805 16.5817 36.7925 16.5605 36.7796 16.5395C36.7676 16.5201 36.7551 16.501 36.7422 16.4821C36.7301 16.4642 36.7177 16.4465 36.7049 16.4291C36.6928 16.4127 36.6803 16.3966 36.6675 16.3806C36.6553 16.3653 36.6429 16.3502 36.6302 16.3353C36.6179 16.3209 36.6055 16.3068 36.5928 16.2928C36.5806 16.2793 36.5681 16.266 36.5555 16.2529C36.5432 16.2403 36.5307 16.2278 36.5181 16.2155C36.5058 16.2036 36.4933 16.1918 36.4807 16.1801C36.4684 16.1688 36.456 16.1576 36.4434 16.1466C36.4311 16.1359 36.4186 16.1252 36.406 16.1148C36.3937 16.1045 36.3813 16.0944 36.3686 16.0845C36.3563 16.0747 36.3439 16.0651 36.3313 16.0556C36.319 16.0463 36.3065 16.0372 36.2939 16.0281C36.2816 16.0192 36.2691 16.0105 36.2566 16.0018C36.2442 15.9934 36.2318 15.985 36.2192 15.9767C36.2069 15.9686 36.1944 15.9606 36.1818 15.9527C36.1695 15.9449 36.1571 15.9372 36.1445 15.9297C36.1322 15.9223 36.1197 15.915 36.1071 15.9077C36.0948 15.9007 36.0823 15.8937 36.0698 15.8867C36.0574 15.8799 36.045 15.8732 36.0324 15.8666C36.0201 15.8601 36.0076 15.8537 35.995 15.8473C35.9827 15.841 35.9702 15.8348 35.9577 15.8287C35.9453 15.8227 35.9329 15.8167 35.9203 15.8108C35.908 15.8051 35.8955 15.7995 35.883 15.7939C35.8706 15.7884 35.8581 15.783 35.8456 15.7776C35.8332 15.7723 35.8208 15.7671 35.8083 15.762C35.7958 15.7569 35.7835 15.7518 35.7709 15.7469C35.7585 15.742 35.7461 15.7372 35.7335 15.7325C35.7212 15.7278 35.7087 15.7233 35.6962 15.7188C35.6838 15.7144 35.6713 15.71 35.6588 15.7057C35.6464 15.7014 35.634 15.6972 35.6215 15.693C35.6091 15.6889 35.5966 15.6849 35.5841 15.681C35.5717 15.6771 35.5592 15.6733 35.5467 15.6696L35.5094 15.6586C35.497 15.655 35.4845 15.6515 35.472 15.6481C35.4596 15.6447 35.4471 15.6414 35.4347 15.6382C35.4223 15.635 35.4098 15.6319 35.3973 15.6288C35.3849 15.6257 35.3724 15.6227 35.3599 15.6198C35.3476 15.6169 35.3351 15.614 35.3226 15.6113C35.3102 15.6085 35.2977 15.6059 35.2852 15.6033C35.2728 15.6007 35.2604 15.5981 35.2479 15.5956L35.2105 15.5885L35.1732 15.5818C35.1607 15.5797 35.1483 15.5775 35.1358 15.5755L35.0984 15.5696C35.086 15.5677 35.0736 15.5659 35.0611 15.5642L35.0237 15.5591L34.9864 15.5544L34.949 15.5502L34.9116 15.5462L34.8743 15.5428L34.8369 15.5396L34.8024 15.537L34.8024 15.4922L34.8369 15.4868L34.8743 15.4806C34.8868 15.4785 34.8993 15.4764 34.9116 15.4741L34.949 15.4669C34.9615 15.4644 34.974 15.4619 34.9864 15.4592L35.0237 15.4511C35.0362 15.4483 35.0487 15.4454 35.0611 15.4424C35.0736 15.4394 35.086 15.4362 35.0984 15.4331C35.111 15.4299 35.1234 15.4265 35.1358 15.4232C35.1483 15.4198 35.1608 15.4163 35.1732 15.4128C35.1857 15.4092 35.1982 15.4055 35.2105 15.4018C35.223 15.398 35.2355 15.3941 35.2479 15.3901C35.2604 15.3861 35.2728 15.382 35.2852 15.3778C35.2978 15.3735 35.3102 15.3692 35.3226 15.3648C35.3351 15.3603 35.3476 15.3558 35.3599 15.3511C35.3725 15.3464 35.385 15.3417 35.3973 15.3368C35.4099 15.3319 35.4223 15.3268 35.4347 15.3217C35.4472 15.3165 35.4597 15.3112 35.472 15.3058C35.4846 15.3004 35.497 15.2948 35.5094 15.2891C35.5219 15.2834 35.5344 15.2775 35.5467 15.2716C35.5593 15.2655 35.5718 15.2593 35.5841 15.2531C35.5967 15.2468 35.6091 15.2403 35.6215 15.2338C35.634 15.2271 35.6465 15.2203 35.6588 15.2135C35.6714 15.2065 35.6839 15.1994 35.6962 15.1922C35.7087 15.1849 35.7212 15.1774 35.7335 15.1698C35.7462 15.1621 35.7586 15.1543 35.7709 15.1464C35.7835 15.1383 35.7959 15.13 35.8083 15.1217C35.8209 15.1132 35.8333 15.1045 35.8456 15.0958C35.8582 15.0868 35.8707 15.0777 35.883 15.0685C35.8956 15.059 35.9081 15.0495 35.9203 15.0398C35.933 15.0298 35.9454 15.0198 35.9577 15.0096C35.9703 14.999 35.9828 14.9883 35.995 14.9776C36.0077 14.9664 36.0202 14.9551 36.0324 14.9436C36.0451 14.9318 36.0576 14.9199 36.0698 14.9078C36.0824 14.8953 36.0949 14.8826 36.1071 14.8698C36.1199 14.8565 36.1323 14.843 36.1445 14.8293C36.1572 14.815 36.1697 14.8005 36.1818 14.786C36.1946 14.7707 36.2071 14.7552 36.2192 14.7395C36.232 14.723 36.2445 14.7063 36.2566 14.6894C36.2694 14.6714 36.2819 14.6533 36.2939 14.6349C36.3068 14.6154 36.3193 14.5956 36.3313 14.5756C36.3442 14.5538 36.3567 14.5319 36.3686 14.5097C36.3817 14.4852 36.3942 14.4605 36.406 14.4355C36.4193 14.4074 36.4317 14.3788 36.4434 14.35C36.4569 14.3164 36.4694 14.2824 36.4807 14.2479C36.495 14.2046 36.5074 14.1605 36.5181 14.1159C36.5353 14.0435 36.5478 13.9696 36.5555 13.8945C36.5615 13.8352 36.5647 13.7751 36.5647 13.7144C36.5647 13.6503 36.5615 13.5878 36.5555 13.5268C36.5477 13.449 36.5352 13.3737 36.5181 13.3011C36.5074 13.2558 36.4949 13.2114 36.4807 13.1682C36.4693 13.1336 36.4569 13.0996 36.4434 13.0664C36.4317 13.0377 36.4192 13.0096 36.406 12.9819C36.3942 12.9573 36.3817 12.933 36.3686 12.9091C36.3567 12.8873 36.3442 12.8658 36.3313 12.8446C36.3192 12.8249 36.3068 12.8055 36.2939 12.7865C36.2819 12.7686 36.2694 12.751 36.2566 12.7336C36.2445 12.7172 36.232 12.701 36.2192 12.6851C36.207 12.6698 36.1946 12.6547 36.1818 12.6399C36.1697 12.6258 36.1572 12.6119 36.1445 12.5982C36.1323 12.585 36.1198 12.572 36.1071 12.5591C36.0949 12.5468 36.0824 12.5345 36.0698 12.5225C36.0575 12.5108 36.0451 12.4993 36.0324 12.4879C36.0202 12.4769 36.0077 12.466 35.995 12.4553C35.9827 12.4449 35.9703 12.4346 35.9577 12.4245C35.9454 12.4146 35.933 12.4049 35.9203 12.3953C35.908 12.386 35.8956 12.3768 35.883 12.3677C35.8707 12.3588 35.8582 12.3501 35.8456 12.3414C35.8333 12.333 35.8209 12.3247 35.8083 12.3165C35.7959 12.3084 35.7835 12.3005 35.7709 12.2927C35.7586 12.285 35.7461 12.2775 35.7335 12.2701C35.7212 12.2627 35.7087 12.2556 35.6962 12.2485C35.6839 12.2415 35.6714 12.2346 35.6588 12.2279C35.6465 12.2212 35.634 12.2147 35.6215 12.2082C35.6091 12.2019 35.5967 12.1956 35.5841 12.1894C35.5717 12.1834 35.5593 12.1773 35.5467 12.1715C35.5344 12.1657 35.5219 12.16 35.5094 12.1544C35.497 12.1489 35.4846 12.1435 35.472 12.1382C35.4597 12.1329 35.4472 12.1277 35.4347 12.1226C35.4223 12.1176 35.4098 12.1126 35.3973 12.1078C35.3849 12.103 35.3725 12.0982 35.3599 12.0936C35.3476 12.089 35.3351 12.0845 35.3226 12.0801C35.3102 12.0757 35.2978 12.0714 35.2852 12.0672C35.2728 12.0631 35.2604 12.059 35.2479 12.055C35.2355 12.0511 35.223 12.0472 35.2105 12.0433C35.1981 12.0396 35.1857 12.0358 35.1732 12.0322C35.1608 12.0286 35.1483 12.0252 35.1358 12.0217C35.1234 12.0183 35.111 12.0151 35.0984 12.0118L35.0611 12.0023C35.0487 11.9992 35.0362 11.9962 35.0237 11.9933C35.0113 11.9904 34.9989 11.9876 34.9864 11.9849L34.949 11.9769C34.9366 11.9744 34.9242 11.9718 34.9116 11.9694C34.8993 11.9669 34.8867 11.9647 34.8743 11.9624L34.8369 11.9558C34.8245 11.9537 34.8121 11.9516 34.7996 11.9496L34.7622 11.944L34.7248 11.9387L34.6875 11.9337L34.6501 11.9293L34.6128 11.9253L34.5754 11.9215L34.538 11.9182L34.5007 11.9154L34.4633 11.9127L34.426 11.9106L34.4111 11.9097L34.3886 11.9083L34.3513 11.9061L34.3139 11.904L34.2765 11.9021L34.2392 11.9003L34.2018 11.8987L34.1645 11.8973L34.1271 11.8962L34.0897 11.8953L34.0524 11.8948L34.0318 11.8948H34.015H33.9776H33.9403H33.9029H33.8656H33.8282H33.7909H33.7535H33.7162H33.6788H33.6414H33.6041H33.5667H33.5294H33.492H33.4546H33.4173H33.3799H33.3425H33.3052H33.2678H33.2305H33.1931H33.1557H33.1184H33.081H33.0437H33.0063H32.969H32.9316H32.8942H32.8569H32.8195H32.7822H32.7448H32.7074H32.6701H32.6327H32.5954H32.558H32.5206H32.4833H32.4459H32.4086H32.3712H32.3339H32.2965H32.2591H32.2218H32.1844H32.1471H32.1097H32.0723H32.035H31.9976H31.9603H31.9229H31.8855H31.8482H31.8108H31.7735H31.7361H31.6987H31.6614H31.624H31.5867H31.5493H31.512H31.4746H31.4372H31.3999H31.3625H31.3252H31.2878H31.2504H31.2131H31.1757H31.1383H31.101H31.0636H31.0263H30.9889H30.9516H30.9142H30.8769H30.8395H30.8021H30.7648H30.7274H30.6901H30.6527H30.6153H30.578H30.5406H30.5032H30.4659H30.4285H30.3912H30.3538H30.3165H30.2791H30.2417H30.2044H30.167H30.1297H30.0923H30.055H30.0176H29.9802H29.9429H29.9055H29.8681H29.8308H29.7934H29.7561H29.7187H29.6813H29.644H29.6066H29.5693H29.5319H29.4946H29.4572H29.4199H29.3825H29.3451H29.3078H29.2704H29.233H29.1957H29.1583H29.121H29.0836H29.0462H29.0089H28.9715H28.9342H28.8968H28.8595H28.8221H28.7847H28.7474H28.71H28.6727H28.6353H28.5547V7.87308C28.5547 7.60253 28.5825 7.3385 28.6353 7.08359C28.6466 7.029 28.6591 6.97488 28.6727 6.92119C28.6843 6.87524 28.6968 6.82964 28.71 6.78437C28.7218 6.74394 28.7343 6.70379 28.7474 6.66392C28.7593 6.62748 28.7717 6.59124 28.7847 6.5553C28.7968 6.52196 28.8091 6.48881 28.8221 6.45591C28.8342 6.42518 28.8466 6.3946 28.8595 6.36427C28.8716 6.33564 28.884 6.30714 28.8968 6.27885C28.9089 6.25199 28.9215 6.22532 28.9342 6.1988C28.9463 6.17349 28.9588 6.14836 28.9715 6.12336C28.9837 6.09932 28.9962 6.07546 29.0089 6.0517C29.0211 6.0288 29.0336 6.00606 29.0462 5.98345C29.0585 5.96151 29.0709 5.93976 29.0836 5.91811C29.0959 5.8971 29.1083 5.87619 29.121 5.85546C29.1332 5.83536 29.1457 5.81541 29.1583 5.79555C29.1706 5.77631 29.1831 5.75725 29.1957 5.73826C29.208 5.71967 29.2204 5.70115 29.233 5.68278C29.2454 5.66477 29.2577 5.64677 29.2704 5.62899C29.2827 5.61177 29.2952 5.59476 29.3078 5.57775C29.3201 5.56102 29.3326 5.54441 29.3451 5.5279C29.3575 5.51163 29.3698 5.49531 29.3825 5.47926C29.3948 5.46364 29.4073 5.44828 29.4199 5.43285C29.4322 5.41764 29.4446 5.40255 29.4572 5.38756C29.4696 5.37275 29.482 5.35794 29.4946 5.34331C29.5069 5.32906 29.5194 5.31506 29.5319 5.30099C29.5443 5.28705 29.5567 5.27308 29.5693 5.25932C29.5816 5.24585 29.5941 5.23249 29.6066 5.21917C29.619 5.20604 29.6315 5.19299 29.644 5.18001C29.6564 5.16722 29.6688 5.15442 29.6813 5.14178C29.6937 5.12936 29.7062 5.11712 29.7187 5.10488C29.7311 5.09271 29.7435 5.08041 29.7561 5.06842C29.7684 5.05668 29.781 5.04521 29.7934 5.03363C29.8058 5.0221 29.8182 5.01054 29.8308 4.99917C29.8432 4.98799 29.8557 4.97702 29.8681 4.96602C29.8806 4.95509 29.893 4.94415 29.9055 4.93337C29.9179 4.92274 29.9304 4.91227 29.9429 4.9018C29.9553 4.89142 29.9677 4.88107 29.9802 4.87085C29.9926 4.86072 30.0051 4.85071 30.0176 4.84077L30.055 4.81137L30.0923 4.78274C30.1047 4.77335 30.1172 4.76403 30.1297 4.7548C30.1421 4.74566 30.1545 4.73655 30.167 4.72753L30.2044 4.70098C30.2168 4.69227 30.2292 4.68363 30.2417 4.67508L30.2791 4.64977L30.3165 4.62514C30.3289 4.61705 30.3413 4.609 30.3538 4.60107L30.3912 4.57771C30.4036 4.56999 30.416 4.56228 30.4285 4.55472C30.4409 4.54722 30.4534 4.53994 30.4659 4.5326C30.4784 4.52526 30.4907 4.51785 30.5032 4.51066C30.5156 4.50357 30.5282 4.49672 30.5406 4.48975C30.5531 4.48278 30.5654 4.47569 30.578 4.46887C30.5903 4.46215 30.6029 4.45564 30.6153 4.44904C30.6278 4.44244 30.6402 4.43581 30.6527 4.42934C30.6651 4.42292 30.6776 4.4167 30.6901 4.41044C30.7025 4.40421 30.7149 4.39795 30.7274 4.39185L30.7648 4.37379C30.7772 4.36787 30.7897 4.36211 30.8021 4.35631C30.8146 4.35055 30.827 4.3447 30.8395 4.33906C30.8519 4.33348 30.8644 4.32815 30.8769 4.3227C30.8893 4.31725 30.9017 4.3117 30.9142 4.30637C30.9266 4.30111 30.9391 4.29609 30.9516 4.29094C30.964 4.28583 30.9764 4.28066 30.9889 4.27567L31.0263 4.26095L31.0636 4.24673C31.0761 4.24203 31.0885 4.23725 31.101 4.2327C31.1134 4.22818 31.1259 4.22393 31.1383 4.21953C31.1508 4.21513 31.1632 4.21064 31.1757 4.20637C31.1881 4.20212 31.2006 4.19812 31.2131 4.194L31.2504 4.18189C31.2629 4.17793 31.2753 4.17393 31.2878 4.17009C31.3002 4.16628 31.3127 4.16268 31.3252 4.159C31.3376 4.15528 31.35 4.15144 31.3625 4.14787C31.3749 4.14434 31.3874 4.14106 31.3999 4.13765C31.4123 4.13424 31.4247 4.1308 31.4372 4.12752L31.4746 4.11785C31.487 4.11472 31.4995 4.11175 31.512 4.10874C31.5244 4.10574 31.5368 4.10252 31.5493 4.09964C31.5617 4.09679 31.5742 4.09418 31.5867 4.09143L31.624 4.08328L31.6614 4.07556C31.6738 4.07308 31.6863 4.07076 31.6987 4.06841C31.7112 4.06602 31.7236 4.06348 31.7361 4.06122C31.7485 4.05896 31.761 4.05704 31.7735 4.05493L31.8108 4.04873C31.8233 4.04675 31.8357 4.04471 31.8482 4.04285C31.8606 4.04099 31.8731 4.03935 31.8855 4.03761C31.898 4.03588 31.9104 4.03399 31.9229 4.03238C31.9353 4.03076 31.9478 4.02934 31.9603 4.02785L31.9976 4.02358C32.0101 4.02221 32.0225 4.0207 32.035 4.01946C32.0474 4.01822 32.0599 4.01726 32.0723 4.01614L32.1097 4.01283L32.1471 4.01001C32.1595 4.00911 32.172 4.0084 32.1844 4.00762C32.1968 4.00688 32.2093 4.00592 32.2218 4.00527C32.2342 4.00462 32.2467 4.00424 32.2591 4.00372L32.2965 4.00232C32.309 4.00192 32.3214 4.00139 32.3339 4.00112C32.3463 4.00084 32.3588 4.00081 32.3712 4.00062C32.3837 4.00043 32.3961 4.00022 32.4086 4.00015L32.418 4.00003H32.4459H32.4833H32.5206H32.558H32.5954H32.6327H32.6701H32.7074H32.7448H32.7822H32.8195H32.8569H32.8942H32.9316H32.969H33.0063H33.0437H33.081H33.1184H33.1557H33.1931H33.2305H33.2678H33.3052H33.3425H33.3799H33.4173H33.4546H33.492H33.5294H33.5667H33.6041H33.6414H33.6788H33.7162H33.7535H33.7909H33.8282H33.8656H33.9029H33.9403H33.9776H34.015H34.0524H34.0897H34.1271H34.1645H34.2018H34.2392H34.2765H34.3139H34.3513H34.3886H34.426H34.4633H34.5007H34.538H34.5754H34.6128H34.6501H34.6875H34.7248H34.7622H34.7996H34.8369H34.8743H34.9116H34.949H34.9864H35.0237H35.0611H35.0984H35.1358H35.1732H35.2105H35.2479H35.2852H35.3226H35.3599H35.3973H35.4347H35.472H35.5094H35.5467H35.5841H35.6215H35.6588H35.6962H35.7335H35.7709H35.8083H35.8456H35.883H35.9203H35.9577H35.995H36.0324H36.0698H36.1071H36.1445H36.1818H36.2192H36.2566H36.2939H36.3313H36.3686H36.406H36.4434H36.4807H36.5181H36.5555H36.5928H36.6302H36.6675H36.7049H36.7422H36.7796H36.8169H36.8543H36.8917H36.929H36.9664H37.0037H37.0411H37.0785H37.1158H37.1532H37.1906H37.2279H37.2653H37.3026H37.34H37.3773H37.4147H37.452H37.4894H37.5268H37.5642H37.6015H37.6389H37.6762H37.7136H37.7509H37.7883H37.8257H37.863H37.9004H37.9377H37.9751H38.0125H38.0498H38.0872V4Z" fill="#54B230"/>
<path fill-rule="evenodd" clip-rule="evenodd" d="M7.13672 17.4375V7.87305C7.13672 7.60327 7.16434 7.33993 7.21682 7.0857C7.22809 7.03111 7.2406 6.97701 7.25413 6.92329C7.26571 6.87729 7.27819 6.83165 7.29141 6.78633C7.30321 6.74593 7.31566 6.70584 7.3287 6.66599C7.34065 6.62953 7.353 6.59322 7.36601 6.55722C7.37805 6.52391 7.39038 6.4908 7.40329 6.45792C7.41533 6.42719 7.42778 6.39655 7.4406 6.36619C7.45271 6.33756 7.46512 6.30912 7.47788 6.28087C7.49002 6.25401 7.50246 6.22736 7.51516 6.20084C7.5273 6.1755 7.53981 6.15034 7.55247 6.12531C7.56464 6.10127 7.57709 6.07741 7.58975 6.05368C7.60195 6.03079 7.6144 6.00805 7.62703 5.98543C7.63926 5.96353 7.65168 5.94175 7.66434 5.92012C7.67661 5.89912 7.68896 5.87817 7.70162 5.85742C7.71389 5.83734 7.72633 5.81742 7.73894 5.79759C7.75114 5.77838 7.76368 5.7593 7.77622 5.74031C7.78851 5.72172 7.80089 5.70319 7.8135 5.68482C7.82588 5.66679 7.83814 5.64879 7.85081 5.63097C7.86304 5.61378 7.87558 5.5968 7.88809 5.57979C7.90041 5.56306 7.91283 5.54646 7.9254 5.52994C7.93776 5.51371 7.95008 5.49735 7.96268 5.4813C7.97494 5.46572 7.98748 5.45038 7.99996 5.43499C8.01229 5.41978 8.0247 5.40463 8.03727 5.3896C8.04963 5.37482 8.06198 5.36007 8.07455 5.34548C8.08685 5.3312 8.09936 5.31717 8.11187 5.30307C8.12422 5.2891 8.13657 5.27516 8.14915 5.2614C8.16144 5.24792 8.17395 5.23463 8.18643 5.22134C8.19878 5.20817 8.2112 5.19513 8.22374 5.18215C8.23609 5.16935 8.24848 5.15656 8.26102 5.14392C8.27334 5.1315 8.28585 5.11926 8.29833 5.10702C8.31075 5.09484 8.32304 5.08258 8.33561 5.07059C8.3479 5.05884 8.36044 5.04738 8.37289 5.03579C8.38531 5.02424 8.39763 5.01265 8.4102 5.00128C8.42253 4.99013 8.43504 4.97919 8.44748 4.96819C8.4599 4.95726 8.47225 4.94629 8.48479 4.93551C8.49715 4.92488 8.5096 4.91444 8.52208 4.90397C8.53443 4.89359 8.54685 4.88321 8.55936 4.87299C8.57171 4.86289 8.58419 4.85288 8.59667 4.84291C8.60905 4.83302 8.62144 4.82323 8.63395 4.8135C8.6463 4.80387 8.65878 4.79436 8.67126 4.78488C8.68365 4.77549 8.69606 4.76613 8.70854 4.7569L8.74582 4.7297C8.75821 4.72075 8.77062 4.71186 8.78313 4.70306C8.79549 4.69435 8.80793 4.68574 8.82041 4.67719C8.8328 4.66867 8.84521 4.66021 8.85769 4.65184C8.87008 4.64357 8.88253 4.63542 8.895 4.62728C8.90739 4.61919 8.91978 4.61104 8.93229 4.60308C8.94464 4.59521 8.95712 4.58753 8.9696 4.57978C8.98201 4.57207 8.99437 4.56426 9.00688 4.5567C9.0192 4.54923 9.03171 4.54199 9.04416 4.53464C9.05661 4.5273 9.06893 4.51983 9.08147 4.51261C9.09379 4.50552 9.10633 4.49874 9.11875 4.49176C9.1312 4.48479 9.14355 4.47773 9.15606 4.47088C9.16842 4.46413 9.18089 4.45762 9.19334 4.45102C9.20576 4.44443 9.21814 4.4378 9.23062 4.43132C9.24301 4.42491 9.25546 4.41862 9.26793 4.41233L9.30521 4.3938C9.31763 4.3877 9.33005 4.3816 9.34253 4.37565C9.35491 4.36973 9.36736 4.364 9.37981 4.3582C9.39225 4.35241 9.40458 4.34649 9.41709 4.34086C9.42944 4.33525 9.44195 4.32998 9.4544 4.32453C9.46682 4.31908 9.4792 4.31353 9.49168 4.3082C9.50407 4.30293 9.51654 4.29785 9.52899 4.29271L9.56627 4.27747L9.60355 4.26266L9.64086 4.24847C9.65331 4.24376 9.66564 4.2389 9.67814 4.23431C9.6905 4.22979 9.70304 4.22557 9.71546 4.22117C9.72787 4.21678 9.74026 4.21231 9.75274 4.20804L9.79002 4.19555L9.82733 4.18344C9.83975 4.17947 9.85213 4.17542 9.86461 4.17157C9.87696 4.16776 9.88947 4.16414 9.90189 4.16045C9.91434 4.15673 9.92672 4.15295 9.9392 4.14936C9.95159 4.1458 9.96403 4.14248 9.97648 4.13904L10.0138 4.12891C10.0262 4.12563 10.0386 4.12228 10.0511 4.11912C10.0635 4.11596 10.0759 4.11308 10.0884 4.11005C10.1008 4.10701 10.1132 4.10385 10.1257 4.10094C10.1381 4.09806 10.1505 4.09536 10.1629 4.0926L10.2003 4.08449C10.2127 4.08182 10.2251 4.07913 10.2375 4.07662C10.2499 4.07414 10.2624 4.07185 10.2748 4.06946C10.2873 4.06707 10.2997 4.0646 10.3121 4.06233C10.3245 4.06007 10.337 4.05803 10.3494 4.05589L10.3867 4.04969C10.3991 4.04771 10.4115 4.04557 10.424 4.04368C10.4364 4.04179 10.4489 4.04021 10.4613 4.03845C10.4737 4.03671 10.4861 4.03485 10.4986 4.03321L10.5359 4.02853L10.5732 4.02429C10.5856 4.0229 10.598 4.02128 10.6105 4.02001C10.6229 4.01874 10.6353 4.01781 10.6477 4.01667L10.6851 4.01338C10.6975 4.01233 10.7099 4.01131 10.7223 4.01041C10.7348 4.00951 10.7472 4.0088 10.7597 4.00802C10.7721 4.00725 10.7845 4.00635 10.7969 4.00567C10.8093 4.00499 10.8218 4.00452 10.8342 4.00397L10.8715 4.00254C10.8839 4.00211 10.8963 4.00146 10.9088 4.00115C10.9212 4.00084 10.9337 4.00087 10.9461 4.00068C10.9585 4.0005 10.971 4.00028 10.9834 4.00022L11.0207 4H11.058H11.0953H11.1326H11.1699H11.2071H11.2445H11.2817H11.319H11.3563H11.3936H11.4309H11.4682H11.5055H11.5428H11.5801H11.6174H11.6547H11.6919H11.7293H11.7665H11.8038H11.8411H11.8784H11.9157H11.953H11.9903H12.0276H12.0649H12.1022H12.1395H12.1768H12.2141H12.2513H12.2887H12.3259H12.3632H12.4005H12.4378H12.4751H12.5124H12.5497H12.587H12.6243H12.6616H12.6989H12.7361H12.7735H12.8107H12.848H12.8853H12.9226H12.9599H12.9972H13.0345H13.0718H13.1091H13.1464H13.1837H13.2209H13.2583H13.2955H13.3328H13.3701H13.4074H13.4447H13.482H13.5193H13.5566H13.5939H13.6312H13.6685H13.7058H13.7431H13.7803H13.8176H13.8549H13.8922H13.9295H13.9668H14.0041H14.0414H14.0787H14.116H14.1533H14.1906H14.2279H14.2651H14.3025H14.3397H14.377H14.4143H14.4516H14.4889H14.5262H14.5635H14.6008H14.6381H14.6754H14.7127H14.75H14.7873H14.8245H14.8618H14.8991H14.9364H14.9737H15.011H15.0483H15.0856H15.1229H15.1602H15.1975H15.2348H15.2721H15.3094H15.3466H15.3839H15.4212H15.4585H15.4958H15.5331H15.5704H15.6077H15.645H15.6823H15.7196H15.7569H15.7942H15.8314H15.8687H15.906H15.9433H15.9806H16.0179H16.0552H16.0925H16.1298H16.1671H16.2044H16.2417H16.279H16.3163H16.3536H16.3908H16.4281H16.4654H16.5027H16.54H16.5773H16.6146H16.6519H16.6835V23.3638C16.6835 23.5323 16.6727 23.6982 16.6519 23.861C16.6419 23.9394 16.6292 24.0169 16.6146 24.0938C16.6034 24.1522 16.5911 24.2102 16.5773 24.2677C16.5657 24.3161 16.5533 24.3642 16.54 24.4119C16.5283 24.4537 16.5158 24.4953 16.5027 24.5365C16.4909 24.5739 16.4784 24.611 16.4654 24.6478C16.4535 24.6819 16.441 24.7159 16.4281 24.7495C16.4161 24.781 16.4037 24.8122 16.3908 24.8433C16.3788 24.8725 16.3663 24.9016 16.3536 24.9304C16.3414 24.9578 16.329 24.985 16.3163 25.0121C16.3041 25.0379 16.2917 25.0635 16.279 25.089C16.2668 25.1135 16.2544 25.1378 16.2417 25.162C16.2295 25.1852 16.217 25.2084 16.2044 25.2314C16.1921 25.2536 16.1798 25.2758 16.1671 25.2977C16.1549 25.3189 16.1424 25.34 16.1298 25.3609C16.1176 25.3812 16.1051 25.4012 16.0925 25.4212C16.0802 25.4408 16.0678 25.4602 16.0552 25.4795C16.0429 25.4984 16.0305 25.5172 16.0179 25.5358C16.0057 25.5539 15.9932 25.5718 15.9806 25.5897C15.9684 25.6071 15.9559 25.6244 15.9433 25.6417C15.931 25.6586 15.9186 25.6755 15.906 25.6922C15.8937 25.7086 15.8813 25.7248 15.8687 25.741C15.8564 25.7567 15.844 25.7724 15.8314 25.7879C15.8191 25.8033 15.8067 25.8187 15.7942 25.8339C15.7819 25.8487 15.7694 25.8634 15.7569 25.8781C15.7445 25.8925 15.7321 25.9068 15.7196 25.9211C15.7072 25.9351 15.6949 25.9493 15.6823 25.9631C15.67 25.9767 15.6575 25.99 15.645 26.0034C15.6326 26.0167 15.6203 26.0301 15.6077 26.0432C15.5954 26.056 15.5829 26.0687 15.5704 26.0814C15.558 26.0939 15.5457 26.1064 15.5331 26.1188C15.5208 26.131 15.5083 26.1432 15.4958 26.1552C15.4835 26.1671 15.471 26.1788 15.4585 26.1905C15.4461 26.2022 15.4338 26.2138 15.4212 26.2253C15.4089 26.2365 15.3964 26.2475 15.3839 26.2586C15.3715 26.2697 15.3592 26.2808 15.3466 26.2917C15.3344 26.3024 15.3218 26.3128 15.3094 26.3233C15.297 26.3338 15.2846 26.3444 15.2721 26.3547C15.2597 26.3649 15.2472 26.3748 15.2348 26.3848C15.2224 26.3948 15.21 26.4049 15.1975 26.4147C15.1851 26.4243 15.1726 26.4338 15.1602 26.4433C15.1478 26.4528 15.1354 26.4623 15.1229 26.4716C15.1106 26.4808 15.098 26.4898 15.0856 26.4989C15.0732 26.5079 15.0609 26.517 15.0483 26.5259C15.036 26.5346 15.0235 26.5432 15.011 26.5517C14.9986 26.5604 14.9863 26.5691 14.9737 26.5775C14.9614 26.5858 14.9489 26.5939 14.9364 26.6021C14.924 26.6103 14.9117 26.6186 14.8991 26.6267C14.8868 26.6346 14.8743 26.6421 14.8618 26.6499C14.8494 26.6577 14.8371 26.6656 14.8245 26.6732C14.8122 26.6807 14.7997 26.6881 14.7873 26.6954C14.7748 26.7028 14.7625 26.7102 14.75 26.7175C14.7376 26.7246 14.7251 26.7317 14.7127 26.7387C14.7003 26.7457 14.6879 26.7527 14.6754 26.7595C14.663 26.7663 14.6506 26.7731 14.6381 26.7798L14.6008 26.7995C14.5884 26.8059 14.576 26.8124 14.5635 26.8188C14.5511 26.8251 14.5387 26.8312 14.5262 26.8373C14.5138 26.8435 14.5014 26.8498 14.4889 26.8558C14.4766 26.8617 14.4641 26.8674 14.4516 26.8732C14.4392 26.8791 14.4268 26.885 14.4143 26.8907C14.402 26.8963 14.3895 26.9017 14.377 26.9072L14.3397 26.9235L14.3025 26.9394C14.2901 26.9446 14.2776 26.9496 14.2651 26.9546C14.2527 26.9597 14.2403 26.9648 14.2279 26.9697C14.2155 26.9746 14.203 26.9792 14.1906 26.9839C14.1781 26.9886 14.1658 26.9935 14.1533 26.9981C14.1409 27.0027 14.1284 27.007 14.116 27.0115L14.0787 27.0246L14.0414 27.0374C14.029 27.0416 14.0165 27.0456 14.0041 27.0495C13.9917 27.0536 13.9793 27.0578 13.9668 27.0617C13.9544 27.0655 13.9419 27.0691 13.9295 27.0728L13.8922 27.0839L13.8549 27.0946C13.8425 27.098 13.8301 27.1013 13.8176 27.1047C13.8052 27.108 13.7928 27.1115 13.7803 27.1147C13.768 27.1179 13.7554 27.1208 13.7431 27.1238C13.7306 27.1269 13.7182 27.13 13.7058 27.133L13.6685 27.1415L13.6312 27.1497C13.6187 27.1524 13.6064 27.1553 13.5939 27.1578C13.5815 27.1604 13.569 27.1625 13.5566 27.165C13.5442 27.1674 13.5318 27.1698 13.5193 27.1721L13.482 27.1788C13.4696 27.181 13.4572 27.183 13.4447 27.185C13.4323 27.187 13.4199 27.1893 13.4074 27.1912C13.3951 27.1931 13.3826 27.1947 13.3701 27.1965L13.3328 27.2018C13.3204 27.2034 13.308 27.2051 13.2955 27.2067C13.2831 27.2082 13.2707 27.2095 13.2583 27.211C13.2458 27.2124 13.2334 27.2139 13.2209 27.2152C13.2086 27.2165 13.1961 27.2177 13.1837 27.2188L13.1464 27.2221C13.1339 27.2232 13.1215 27.2245 13.1091 27.2254C13.0967 27.2264 13.0842 27.227 13.0718 27.2278L13.0345 27.2301L12.9972 27.2321C12.9848 27.2327 12.9723 27.2331 12.9599 27.2335C12.9475 27.234 12.9351 27.2346 12.9226 27.235C12.9102 27.2353 12.8977 27.2354 12.8853 27.2357L12.848 27.2361C12.8365 27.2362 12.825 27.2366 12.8135 27.2366H12.7735H12.7361H12.6989H12.6616H12.6243H12.587H12.5497H12.5124H12.4751H12.4378H12.4005H12.3632H12.3259H12.2887H12.2513H12.2141H12.1768H12.1395H12.1022H12.0649H12.0276H11.9903H11.953H11.9157H11.8784H11.8411H11.8038H11.7665H11.7293H11.6919H11.6547H11.6174H11.5801H11.5428H11.5055H11.4682H11.4309H11.3936H11.3563H11.319H11.2817H11.2445H11.2071H11.1699H11.1326H11.0953H11.058H11.0207H10.9834H10.9461H10.9088H10.8715H10.8342H10.7969H10.7597H10.7223H10.6851H10.6477H10.6105H10.5732H10.5359H10.4986H10.4613H10.424H10.3867H10.3494H10.3121H10.2748H10.2375H10.2003H10.1629H10.1257H10.0884H10.0511H10.0138H9.97648H9.9392H9.90189H9.86461H9.82733H9.79002H9.75274H9.71546H9.67814H9.64086H9.60355H9.56627H9.52899H9.49168H9.4544H9.41709H9.37981H9.34253H9.30521H9.26793H9.23062H9.19334H9.15606H9.11875H9.08147H9.04416H9.00688H8.9696H8.93229H8.895H8.85769H8.82041H8.78313H8.74582H8.70854H8.67126H8.63395H8.59667H8.55936H8.52208H8.48479H8.44748H8.4102H8.37289H8.33561H8.29833H8.26102H8.22374H8.18643H8.14915H8.11187H8.07455H8.03727H7.99996H7.96268H7.9254H7.88809H7.85081H7.8135H7.77622H7.73894H7.70162H7.66434H7.62703H7.58975H7.55247H7.51516H7.47788H7.4406H7.40329H7.36601H7.3287H7.29141H7.25413H7.21682H7.13672V19.0749C7.13672 19.0749 7.16428 19.0825 7.21682 19.0958L7.25413 19.1051L7.29141 19.1142L7.3287 19.1232L7.36601 19.132L7.40329 19.1407L7.4406 19.1492L7.47788 19.1576L7.51516 19.1659L7.55247 19.1741L7.58975 19.1822L7.62703 19.1902L7.66434 19.198L7.70162 19.2058L7.73894 19.2134L7.77622 19.221L7.8135 19.2285L7.85081 19.2358L7.88809 19.2431L7.9254 19.2503L7.96268 19.2574L7.99996 19.2644L8.03727 19.2713L8.07455 19.2781L8.11187 19.2848L8.14915 19.2915L8.18643 19.298L8.22374 19.3045L8.26102 19.3108L8.29833 19.3171L8.33561 19.3233L8.37289 19.3295L8.4102 19.3355L8.44748 19.3415L8.48479 19.3473L8.52208 19.3531L8.55936 19.3589L8.59667 19.3645L8.63395 19.37L8.67126 19.3755L8.70854 19.3809L8.74582 19.3862L8.78313 19.3914L8.82041 19.3965L8.85769 19.4016L8.895 19.4065L8.93229 19.4114L8.9696 19.4163L9.00688 19.421L9.04416 19.4257L9.08147 19.4302L9.11875 19.4347L9.15606 19.4391L9.19334 19.4435L9.23062 19.4477L9.26793 19.4519L9.30521 19.456L9.34253 19.46L9.37981 19.464L9.41709 19.4678L9.4544 19.4716L9.49168 19.4752L9.52899 19.4789L9.56627 19.4824L9.60355 19.4858L9.64086 19.4893L9.67814 19.4925L9.71546 19.4957L9.75274 19.4988L9.79002 19.5019L9.82733 19.5049L9.86461 19.5077L9.90189 19.5106L9.9392 19.5132L9.97648 19.5159L10.0138 19.5185L10.0511 19.5209L10.0884 19.5233L10.1257 19.5256L10.1629 19.5278L10.2003 19.53L10.2375 19.5321L10.2748 19.534L10.3121 19.536L10.3494 19.5377L10.3867 19.5395L10.424 19.5411L10.4613 19.5426L10.4986 19.5442L10.5359 19.5455L10.5732 19.5468L10.6105 19.5481L10.6477 19.5492L10.6851 19.5503L10.7223 19.5512L10.7597 19.552L10.7969 19.5529L10.8342 19.5535L10.8715 19.5541L10.9088 19.5547L10.9461 19.5551L10.9834 19.5555L11.0207 19.5558L11.058 19.5559L11.0953 19.556L11.1326 19.5559L11.1699 19.5557L11.2071 19.5554L11.2445 19.5552L11.2817 19.555L11.319 19.5543L11.3563 19.5536L11.3936 19.553L11.4309 19.5523L11.4682 19.5514L11.5055 19.5502L11.5428 19.549L11.5801 19.5479L11.6174 19.5466L11.6547 19.545L11.6919 19.5434L11.7293 19.5417L11.7665 19.54L11.8038 19.538L11.8411 19.5358L11.8784 19.5337L11.9157 19.5315L11.953 19.529L11.9903 19.5263L12.0276 19.5237L12.0649 19.521L12.1022 19.518L12.1395 19.5148L12.1768 19.5115L12.2141 19.5083L12.2513 19.5048L12.2887 19.501L12.3259 19.4972L12.3632 19.4934L12.4005 19.4892L12.4378 19.4849L12.4751 19.4805L12.5124 19.4761L12.5497 19.4712L12.587 19.4662L12.6243 19.4613L12.6616 19.4562C12.6742 19.4544 12.6864 19.4524 12.6989 19.4506L12.7361 19.445L12.7735 19.4393L12.8107 19.4334C12.8233 19.4314 12.8356 19.4292 12.848 19.4271L12.8853 19.4209C12.8977 19.4188 12.9103 19.4167 12.9226 19.4146C12.9352 19.4123 12.9474 19.41 12.9599 19.4077L12.9972 19.4007L13.0345 19.3937L13.0718 19.3864C13.0843 19.3839 13.0966 19.3813 13.1091 19.3787L13.1464 19.371L13.1837 19.3632C13.1963 19.3605 13.2085 19.3576 13.2209 19.3548L13.2583 19.3464C13.2706 19.3436 13.2833 19.3409 13.2955 19.338C13.3081 19.335 13.3204 19.3319 13.3328 19.3289L13.3701 19.3197C13.3825 19.3166 13.3951 19.3137 13.4074 19.3105C13.42 19.3073 13.4323 19.304 13.4447 19.3007L13.482 19.2908C13.4944 19.2874 13.507 19.2842 13.5193 19.2808C13.5319 19.2773 13.5442 19.2737 13.5566 19.2702L13.5939 19.2594C13.6063 19.2558 13.6189 19.2522 13.6312 19.2485L13.6685 19.2371L13.7058 19.2254C13.7182 19.2215 13.7308 19.2177 13.7431 19.2137L13.7803 19.2013L13.8176 19.1886C13.83 19.1844 13.8427 19.1803 13.8549 19.176C13.8675 19.1716 13.8798 19.1669 13.8922 19.1624L13.9295 19.1488C13.9419 19.1442 13.9545 19.1397 13.9668 19.135C13.9794 19.1303 13.9917 19.1253 14.0041 19.1204C14.0166 19.1156 14.0291 19.1107 14.0414 19.1058L14.0787 19.0906L14.116 19.075C14.1284 19.0697 14.141 19.0646 14.1533 19.0593C14.1659 19.0538 14.1781 19.0481 14.1906 19.0425L14.2279 19.0258L14.2651 19.0084C14.2777 19.0025 14.2901 18.9965 14.3025 18.9904C14.3149 18.9844 14.3275 18.9785 14.3397 18.9724C14.3524 18.9661 14.3646 18.9596 14.377 18.9532C14.3895 18.9468 14.4021 18.9405 14.4143 18.934C14.4269 18.9274 14.4392 18.9206 14.4516 18.9138C14.4641 18.907 14.4766 18.9002 14.4889 18.8933C14.5015 18.8863 14.5139 18.8793 14.5262 18.8722C14.5388 18.865 14.5512 18.8576 14.5635 18.8503C14.576 18.8429 14.5885 18.8355 14.6008 18.828C14.6134 18.8203 14.6257 18.8125 14.6381 18.8046C14.6506 18.7968 14.6631 18.789 14.6754 18.781C14.688 18.7728 14.7003 18.7644 14.7127 18.7561C14.7251 18.7477 14.7377 18.7394 14.75 18.7309C14.7626 18.7222 14.7749 18.7133 14.7873 18.7045C14.7997 18.6955 14.8123 18.6866 14.8245 18.6775C14.8372 18.6682 14.8495 18.6588 14.8618 18.6493C14.8744 18.6397 14.8869 18.6301 14.8991 18.6204C14.9117 18.6105 14.9241 18.6004 14.9364 18.5903C14.949 18.58 14.9614 18.5695 14.9737 18.5591C14.9863 18.5484 14.9988 18.5378 15.011 18.527C15.0237 18.5159 15.036 18.5045 15.0483 18.4932C15.0608 18.4817 15.0734 18.4703 15.0856 18.4587C15.0983 18.4466 15.1106 18.4345 15.1229 18.4222C15.1355 18.4097 15.1479 18.3971 15.1602 18.3844C15.1727 18.3715 15.1853 18.3585 15.1975 18.3454C15.2102 18.3317 15.2225 18.3178 15.2348 18.3039C15.2474 18.2896 15.2598 18.2752 15.2721 18.2608C15.2847 18.2459 15.2972 18.2309 15.3094 18.2158C15.322 18.2001 15.3345 18.1844 15.3466 18.1685C15.3594 18.1519 15.3717 18.1351 15.3839 18.1182C15.3967 18.1007 15.409 18.083 15.4212 18.0652C15.434 18.0467 15.4464 18.028 15.4585 18.0092C15.4712 17.9895 15.4837 17.9697 15.4958 17.9497C15.5086 17.9285 15.521 17.9073 15.5331 17.8859C15.5459 17.8632 15.5583 17.8403 15.5704 17.8172C15.5833 17.7926 15.5957 17.7678 15.6077 17.7428C15.6206 17.7159 15.633 17.6887 15.645 17.6614C15.658 17.6318 15.6704 17.6019 15.6823 17.5717C15.6954 17.5385 15.7078 17.505 15.7196 17.4712C15.7329 17.4328 15.7452 17.3941 15.7569 17.355C15.7704 17.3093 15.7828 17.2632 15.7942 17.2166C15.8082 17.1589 15.8207 17.1004 15.8314 17.0414C15.8474 16.9534 15.8598 16.864 15.8687 16.7735C15.8813 16.6473 15.8874 16.5188 15.8874 16.3882V11.8948H15.8314H15.7942H15.7569H15.7196H15.6823H15.645H15.6077H15.5704H15.5331H15.4958H15.4585H15.4212H15.3839H15.3466H15.3094H15.2721H15.2348H15.1975H15.1602H15.1229H15.0856H15.0483H15.011H14.9737H14.9364H14.8991H14.8618H14.8245H14.7873H14.75H14.7127H14.6754H14.6381H14.6008H14.5635H14.5262H14.4889H14.4516H14.4143H14.377H14.3397H14.3025H14.2651H14.2279H14.1906H14.1533H14.116H14.0787H14.0414H14.0041H13.9668H13.9295H13.8922H13.8549H13.8176H13.7803H13.7431H13.7058H13.6685H13.6312H13.5939H13.5566H13.5193H13.482H13.4447H13.4074H13.3701H13.3328H13.2955H13.2583H13.2209H13.1837H13.1464H13.1091H13.0718H13.0345H12.9972H12.9599H12.9226H12.8853H12.848H12.8107H12.7735H12.7361H12.6989H12.6616H12.6243H12.587L12.5587 16.3882C12.5587 16.4586 12.5557 16.5278 12.5497 16.5957C12.5421 16.6821 12.5296 16.7664 12.5124 16.8484C12.5018 16.899 12.4893 16.9487 12.4751 16.9975C12.4638 17.0363 12.4514 17.0746 12.4378 17.1121C12.4262 17.1441 12.4137 17.1756 12.4005 17.2067C12.3887 17.2344 12.3763 17.2616 12.3632 17.2885C12.3513 17.313 12.3389 17.3372 12.3259 17.361C12.314 17.3828 12.3015 17.4043 12.2887 17.4255C12.2766 17.4455 12.2642 17.4652 12.2513 17.4847C12.2393 17.5029 12.2268 17.5208 12.2141 17.5386C12.2019 17.5555 12.1896 17.5722 12.1768 17.5887C12.1646 17.6043 12.1522 17.6196 12.1395 17.6348C12.1273 17.6493 12.1149 17.6636 12.1022 17.6778C12.09 17.6914 12.0776 17.7049 12.0649 17.7181C12.0526 17.7309 12.0403 17.7435 12.0276 17.7559C12.0154 17.7679 12.0029 17.7798 11.9903 17.7915C11.9781 17.8027 11.9656 17.8138 11.953 17.8248C11.9408 17.8354 11.9283 17.8459 11.9157 17.8562C11.9035 17.8663 11.891 17.8761 11.8784 17.8859C11.8661 17.8954 11.8537 17.9047 11.8411 17.914C11.8288 17.923 11.8164 17.9318 11.8038 17.9405C11.7916 17.949 11.7791 17.9574 11.7665 17.9657C11.7542 17.9737 11.7418 17.9817 11.7293 17.9895C11.717 17.9971 11.7045 18.0046 11.6919 18.012C11.6797 18.0192 11.6672 18.0262 11.6547 18.0332C11.6424 18.0401 11.6299 18.0468 11.6174 18.0534C11.6051 18.0599 11.5926 18.0662 11.5801 18.0725C11.5677 18.0786 11.5553 18.0847 11.5428 18.0906C11.5304 18.0964 11.5181 18.1022 11.5055 18.1078C11.4931 18.1134 11.4807 18.1188 11.4682 18.1241C11.4559 18.1293 11.4434 18.1343 11.4309 18.1393C11.4186 18.1443 11.4061 18.1491 11.3936 18.1538C11.3813 18.1584 11.3689 18.163 11.3563 18.1674C11.344 18.1718 11.3316 18.1762 11.319 18.1804C11.3067 18.1845 11.2942 18.1885 11.2817 18.1925C11.2694 18.1963 11.2569 18.2 11.2445 18.2037C11.2321 18.2074 11.2197 18.211 11.2071 18.2144C11.1948 18.2178 11.1824 18.2213 11.1699 18.2245C11.1575 18.2277 11.1451 18.2308 11.1326 18.2338C11.1202 18.2367 11.1078 18.2396 11.0953 18.2424C11.0829 18.2451 11.0705 18.2479 11.058 18.2505C11.0456 18.253 11.0332 18.2555 11.0207 18.2579C11.0083 18.2603 10.9959 18.2625 10.9834 18.2647C10.971 18.2668 10.9586 18.269 10.9461 18.271L10.9088 18.2767C10.8965 18.2785 10.884 18.2802 10.8715 18.2818C10.8591 18.2834 10.8468 18.2851 10.8342 18.2865L10.7969 18.2907C10.7846 18.2919 10.7721 18.2931 10.7597 18.2942C10.7472 18.2953 10.7349 18.2965 10.7223 18.2974C10.71 18.2984 10.6975 18.2992 10.6851 18.3C10.6727 18.3008 10.6602 18.3015 10.6477 18.3022C10.6353 18.3028 10.623 18.3035 10.6105 18.304C10.5981 18.3045 10.5856 18.3047 10.5732 18.3051L10.5359 18.306C10.5235 18.3062 10.5111 18.3063 10.4986 18.3063L10.4613 18.3064L10.424 18.3061L10.3867 18.3056L10.3494 18.3048L10.3121 18.3038L10.2748 18.3026L10.2375 18.3011L10.2003 18.2994L10.1629 18.2975L10.1257 18.2953L10.0884 18.2928L10.0511 18.2902L10.0138 18.2873L9.97648 18.2842L9.9392 18.2808L9.90189 18.2773L9.86461 18.2734L9.82733 18.2694L9.79002 18.2651L9.75274 18.2606L9.71546 18.2559L9.67814 18.251L9.64086 18.2458L9.60355 18.2404L9.56627 18.2348L9.52899 18.229L9.49168 18.2229L9.4544 18.2166L9.41709 18.2101L9.37981 18.2034L9.34253 18.1965L9.30521 18.1894L9.26793 18.182L9.23062 18.1744L9.19334 18.1667L9.15606 18.1587L9.11875 18.1505L9.08147 18.1421L9.04416 18.1335L9.00688 18.1246L8.9696 18.1156L8.93229 18.1064L8.895 18.097L8.85769 18.0872L8.82041 18.0774L8.78313 18.0674L8.74582 18.0571L8.70854 18.0467L8.67126 18.036L8.63395 18.0252L8.59667 18.0141L8.55936 18.0029L8.52208 17.9915L8.48479 17.9798L8.44748 17.968L8.4102 17.956L8.37289 17.9438L8.33561 17.9314L8.29833 17.9188L8.26102 17.906L8.22374 17.8931L8.18643 17.8799L8.14915 17.8666L8.11187 17.8532L8.07455 17.8394L8.03727 17.8255L7.99996 17.8115L7.96268 17.7972L7.9254 17.7828L7.88809 17.7682L7.85081 17.7534L7.8135 17.7385L7.77622 17.7233L7.73894 17.708L7.70162 17.6926L7.66434 17.6769L7.62703 17.6611L7.58975 17.6451L7.55247 17.6289L7.51516 17.6126L7.47788 17.5961L7.4406 17.5794L7.40329 17.5626L7.36601 17.5456L7.3287 17.5284L7.29141 17.5111L7.25413 17.4936L7.21682 17.476C7.1901 17.4633 7.16341 17.4505 7.13672 17.4375Z" fill="#006CB9"/>
<path fill-rule="evenodd" clip-rule="evenodd" d="M17.9277 12.8766C17.9005 12.8986 17.8738 12.9208 17.8477 12.9433V7.87305C17.8477 7.60342 17.8753 7.34024 17.9277 7.0861C17.939 7.03154 17.9515 6.97748 17.965 6.92379C17.9766 6.87772 17.9891 6.83202 18.0023 6.78664C18.0141 6.7462 18.0266 6.70605 18.0396 6.66618C18.0516 6.62975 18.0639 6.5935 18.0769 6.55756C18.0889 6.52426 18.1013 6.49111 18.1142 6.45823C18.1263 6.4275 18.1387 6.39692 18.1515 6.36656C18.1636 6.33793 18.176 6.30949 18.1888 6.28121C18.2009 6.25435 18.2134 6.22767 18.2261 6.20115C18.2382 6.17581 18.2507 6.15072 18.2634 6.12568C18.2755 6.10164 18.288 6.07779 18.3007 6.05402C18.3129 6.03113 18.3253 6.00839 18.338 5.98577C18.3502 5.96387 18.3626 5.94206 18.3753 5.92043C18.3875 5.89943 18.3999 5.87851 18.4126 5.85776C18.4248 5.83771 18.4372 5.81779 18.4498 5.79799C18.4621 5.77872 18.4746 5.75967 18.4872 5.74065C18.4994 5.72203 18.5118 5.70353 18.5244 5.68516C18.5368 5.66713 18.5491 5.6491 18.5617 5.63132C18.574 5.61409 18.5865 5.59714 18.599 5.58017C18.6114 5.56344 18.6238 5.5468 18.6363 5.53029C18.6487 5.51402 18.661 5.49772 18.6736 5.48168C18.6858 5.46609 18.6985 5.45073 18.7109 5.43533C18.7233 5.42012 18.7357 5.40497 18.7482 5.38997C18.7606 5.37516 18.773 5.36042 18.7855 5.34582C18.7978 5.33157 18.8103 5.31751 18.8228 5.30344C18.8352 5.2895 18.8475 5.2755 18.8601 5.26171C18.8724 5.24823 18.8849 5.23491 18.8974 5.22162C18.9097 5.20848 18.9221 5.19544 18.9346 5.18246C18.947 5.16966 18.9594 5.15687 18.972 5.14423C18.9843 5.13184 18.9968 5.1196 19.0092 5.10736C19.0217 5.09519 19.034 5.08292 19.0465 5.0709C19.0588 5.05915 19.0714 5.04769 19.0838 5.0361C19.0962 5.02455 19.1086 5.01296 19.1211 5.00159C19.1335 4.99044 19.146 4.97947 19.1584 4.96847C19.1708 4.9575 19.1832 4.94657 19.1957 4.93579C19.2081 4.92516 19.2205 4.91472 19.233 4.90425C19.2454 4.89387 19.2578 4.88349 19.2703 4.87324C19.2827 4.86314 19.2951 4.85313 19.3076 4.84318C19.32 4.8333 19.3324 4.82348 19.3449 4.81375C19.3573 4.80415 19.3697 4.79464 19.3822 4.78516C19.3946 4.77577 19.407 4.76641 19.4195 4.75718C19.4318 4.74801 19.4443 4.73896 19.4568 4.72995C19.4692 4.72103 19.4816 4.7121 19.4941 4.7033C19.5065 4.6946 19.5189 4.68602 19.5314 4.67743C19.5438 4.66892 19.5562 4.66043 19.5687 4.65206C19.581 4.64379 19.5935 4.63564 19.606 4.62749C19.6184 4.61938 19.6307 4.61126 19.6433 4.6033C19.6556 4.59543 19.6681 4.58774 19.6806 4.58C19.693 4.57228 19.7053 4.56448 19.7178 4.55692C19.7302 4.54942 19.7427 4.54217 19.7552 4.53483C19.7676 4.52749 19.7799 4.51999 19.7924 4.5128C19.8048 4.50571 19.8173 4.49889 19.8297 4.49192C19.8422 4.48495 19.8545 4.47792 19.867 4.4711C19.8794 4.46435 19.8919 4.45784 19.9043 4.45121C19.9167 4.44461 19.9291 4.43798 19.9416 4.43151L19.9789 4.41251L20.0162 4.39396C20.0286 4.38788 20.041 4.38175 20.0535 4.3758C20.0659 4.36988 20.0784 4.36415 20.0908 4.35836C20.1033 4.3526 20.1156 4.34665 20.1281 4.34101C20.1404 4.3354 20.153 4.33014 20.1654 4.32468C20.1778 4.31923 20.1902 4.31368 20.2027 4.30836C20.2151 4.30309 20.2275 4.29798 20.24 4.29283L20.2773 4.27759C20.2897 4.2726 20.3021 4.26762 20.3146 4.26275C20.3269 4.25792 20.3394 4.25327 20.3519 4.24856C20.3643 4.24385 20.3766 4.23899 20.3891 4.2344C20.4015 4.22988 20.414 4.22567 20.4265 4.22127C20.4389 4.21687 20.4513 4.21241 20.4637 4.20813C20.4761 4.20386 20.4886 4.19977 20.501 4.19565L20.5383 4.18353C20.5507 4.17957 20.5632 4.17551 20.5756 4.17164C20.588 4.16783 20.6005 4.16423 20.6129 4.16054C20.6253 4.15683 20.6378 4.15302 20.6502 4.14942C20.6626 4.14586 20.6751 4.14254 20.6875 4.13911L20.7248 4.12897C20.7372 4.12569 20.7496 4.12234 20.7621 4.11918C20.7745 4.11606 20.787 4.11311 20.7994 4.11008C20.8118 4.10704 20.8242 4.10388 20.8367 4.10097C20.8491 4.09809 20.8616 4.09539 20.874 4.09263L20.9113 4.08452C20.9237 4.08188 20.9361 4.07916 20.9486 4.07665C20.961 4.07414 20.9734 4.07188 20.9859 4.06949C20.9983 4.06711 21.0107 4.0646 21.0232 4.06233L21.0605 4.05589L21.0978 4.04972C21.1102 4.04771 21.1226 4.04557 21.1351 4.04368C21.1474 4.04179 21.1599 4.04021 21.1723 4.03845C21.1848 4.03671 21.1972 4.03488 21.2096 4.03324L21.2469 4.02856L21.2842 4.02429C21.2967 4.0229 21.3091 4.02128 21.3215 4.02001C21.3339 4.01874 21.3464 4.01781 21.3588 4.01667L21.3961 4.01338C21.4085 4.01233 21.421 4.01131 21.4334 4.01041C21.4458 4.00951 21.4583 4.0088 21.4707 4.00802C21.4831 4.00725 21.4955 4.00635 21.508 4.00567C21.5204 4.00499 21.5329 4.00452 21.5453 4.00397L21.5826 4.00254C21.595 4.00211 21.6074 4.00146 21.6199 4.00115C21.6323 4.00084 21.6448 4.00087 21.6572 4.00068C21.6696 4.0005 21.682 4.00028 21.6945 4.00022L21.7109 4H21.7318H21.7691H21.8064H21.8436H21.881H21.9182H21.9555H21.9928H22.0301H22.0674H22.1047H22.142H22.1793H22.2166H22.2539H22.2912H22.3285H22.3658H22.4031H22.4403H22.4777H22.5149H22.5523H22.5895H22.6268H22.6642H22.7014H22.7387H22.776H22.8133H22.8506H22.8879H22.9252H22.9625H22.9998H23.0371H23.0744H23.1117H23.149H23.1863H23.2235H23.2609H23.2981H23.3355H23.3727H23.41H23.4473H23.4846H23.5219H23.5592H23.5965H23.6338H23.6711H23.7084H23.7457H23.783H23.8203H23.8576H23.8949H23.9322H23.9695H24.0068H24.044H24.0813H24.1186H24.1559H24.1932H24.2305H24.2678H24.3051H24.3424H24.3797H24.417H24.4543H24.4916H24.5289H24.5662H24.6035H24.6408H24.678H24.7153H24.7526H24.7899H24.8272H24.8645H24.9018H24.9391H24.9764H25.0137H25.051H25.0883H25.1256H25.1629H25.2002H25.2375H25.2748H25.3121H25.3493H25.3867H25.4239H25.4612H25.4985H25.5358H25.5731H25.6104H25.6477H25.685H25.7223H25.7596H25.7969H25.8342H25.8715H25.9088H25.9461H25.9834H26.0206H26.058H26.0952H26.1325H26.1699H26.2071H26.2445H26.2817H26.319H26.3563H26.3936H26.4309H26.4682H26.5055H26.5428H26.5801H26.6174H26.6547H26.692H26.7293H26.7666H26.8038H26.8412H26.8784H26.9157H26.953H26.9903H27.0276H27.0649H27.1022H27.1395H27.1768H27.2141H27.2514H27.2887H27.326H27.3633H27.3949V23.3638C27.3949 23.5322 27.3841 23.698 27.3633 23.8607C27.3532 23.9391 27.3406 24.0166 27.326 24.0934C27.3148 24.1519 27.3024 24.2099 27.2887 24.2674C27.2771 24.3158 27.2647 24.3639 27.2514 24.4117C27.2396 24.4535 27.2272 24.4951 27.2141 24.5363C27.2022 24.5737 27.1897 24.6107 27.1768 24.6476C27.1648 24.6817 27.1524 24.7156 27.1395 24.7493C27.1274 24.7807 27.1151 24.8119 27.1022 24.843C27.0901 24.8722 27.0777 24.9013 27.0649 24.9302C27.0528 24.9576 27.0403 24.9847 27.0276 25.0118C27.0155 25.0376 27.003 25.0633 26.9903 25.0888C26.9781 25.1133 26.9657 25.1376 26.953 25.1617C26.9408 25.185 26.9284 25.2082 26.9157 25.2312C26.9035 25.2534 26.8911 25.2756 26.8784 25.2976C26.8662 25.3187 26.8538 25.3398 26.8412 25.3607C26.8289 25.381 26.8164 25.401 26.8038 25.4211C26.7916 25.4406 26.7792 25.46 26.7666 25.4793C26.7542 25.4981 26.7419 25.517 26.7293 25.5357C26.717 25.5537 26.7045 25.5716 26.692 25.5895C26.6797 25.6069 26.6672 25.6242 26.6547 25.6415C26.6423 25.6584 26.63 25.6753 26.6174 25.692C26.6051 25.7084 26.5926 25.7245 26.5801 25.7407C26.5678 25.7565 26.5553 25.7721 26.5428 25.7877C26.5304 25.8031 26.5181 25.8185 26.5055 25.8337C26.4932 25.8485 26.4807 25.8632 26.4682 25.8779C26.4559 25.8923 26.4435 25.9066 26.4309 25.9208C26.4185 25.9349 26.4062 25.949 26.3936 25.9629C26.3813 25.9765 26.3688 25.9898 26.3563 26.0032C26.3439 26.0165 26.3316 26.0299 26.319 26.043C26.3067 26.0559 26.2942 26.0685 26.2817 26.0812C26.2694 26.0937 26.257 26.1062 26.2445 26.1186C26.2321 26.1308 26.2197 26.1429 26.2071 26.155C26.1948 26.1669 26.1823 26.1786 26.1699 26.1903C26.1574 26.2019 26.1451 26.2136 26.1325 26.2251C26.1202 26.2364 26.1077 26.2474 26.0952 26.2585C26.0828 26.2695 26.0705 26.2807 26.058 26.2916C26.0456 26.3023 26.0331 26.3127 26.0206 26.3232C26.0082 26.3337 25.9959 26.3443 25.9834 26.3546C25.971 26.3647 25.9585 26.3746 25.9461 26.3846C25.9337 26.3946 25.9213 26.4047 25.9088 26.4145C25.8964 26.4242 25.8839 26.4336 25.8715 26.4431C25.8591 26.4526 25.8467 26.4621 25.8342 26.4715C25.8219 26.4807 25.8093 26.4897 25.7969 26.4987C25.7845 26.5077 25.7721 26.5169 25.7596 26.5257C25.7473 26.5345 25.7348 26.543 25.7223 26.5516C25.7099 26.5602 25.6975 26.5689 25.685 26.5774C25.6727 26.5857 25.6602 26.5938 25.6477 26.6019C25.6353 26.6101 25.623 26.6184 25.6104 26.6265C25.5981 26.6344 25.5855 26.642 25.5731 26.6498C25.5607 26.6576 25.5484 26.6654 25.5358 26.6731C25.5235 26.6806 25.511 26.6879 25.4985 26.6953C25.4861 26.7027 25.4737 26.7101 25.4612 26.7173C25.4489 26.7245 25.4364 26.7315 25.4239 26.7386L25.3867 26.7594L25.3493 26.7796L25.3121 26.7993C25.2996 26.8058 25.2873 26.8123 25.2748 26.8186C25.2624 26.8249 25.25 26.831 25.2375 26.8372C25.2251 26.8434 25.2127 26.8497 25.2002 26.8557C25.1878 26.8616 25.1753 26.8673 25.1629 26.8731C25.1505 26.8789 25.1381 26.8849 25.1256 26.8906C25.1132 26.8962 25.1007 26.9016 25.0883 26.9071L25.051 26.9234L25.0137 26.9393L24.9764 26.9545C24.964 26.9596 24.9516 26.9647 24.9391 26.9696C24.9268 26.9745 24.9142 26.9791 24.9018 26.9838C24.8894 26.9885 24.877 26.9934 24.8645 26.998C24.8521 27.0026 24.8397 27.007 24.8272 27.0114L24.7899 27.0246L24.7526 27.0373C24.7403 27.0415 24.7278 27.0454 24.7153 27.0495C24.7029 27.0535 24.6905 27.0577 24.678 27.0616C24.6657 27.0654 24.6532 27.069 24.6408 27.0728L24.6035 27.0838L24.5662 27.0945C24.5538 27.0979 24.5413 27.1013 24.5289 27.1046C24.5164 27.1079 24.5041 27.1115 24.4916 27.1147C24.4792 27.1179 24.4667 27.1207 24.4543 27.1238C24.4419 27.1268 24.4294 27.1299 24.417 27.1329L24.3797 27.1415L24.3424 27.1496C24.33 27.1523 24.3176 27.1552 24.3051 27.1577C24.2927 27.1603 24.2802 27.1625 24.2678 27.1649L24.2305 27.172L24.1932 27.1788C24.1808 27.1809 24.1684 27.1829 24.1559 27.185C24.1435 27.187 24.1311 27.1892 24.1186 27.1911C24.1062 27.1931 24.0938 27.1947 24.0813 27.1965L24.044 27.2017C24.0316 27.2034 24.0192 27.2051 24.0068 27.2067C23.9944 27.2082 23.9819 27.2095 23.9695 27.2109C23.957 27.2124 23.9446 27.2139 23.9322 27.2152C23.9198 27.2165 23.9073 27.2176 23.8949 27.2188L23.8576 27.2221C23.8451 27.2232 23.8328 27.2245 23.8203 27.2254C23.8079 27.2263 23.7954 27.2269 23.783 27.2278L23.7457 27.2301L23.7084 27.2321C23.696 27.2327 23.6835 27.2331 23.6711 27.2335C23.6587 27.234 23.6462 27.2346 23.6338 27.2349C23.6214 27.2353 23.609 27.2354 23.5965 27.2357L23.5592 27.2361C23.5476 27.2362 23.536 27.2366 23.5244 27.2366H23.5219H23.4846H23.4473H23.41H23.3727H23.3355H23.2981H23.2609H23.2235H23.1863H23.149H23.1117H23.0744H23.0371H22.9998H22.9625H22.9252H22.8879H22.8506H22.8133H22.776H22.7387H22.7014H22.6642H22.6268H22.5895H22.5523H22.5149H22.4777H22.4403H22.4031H22.3658H22.3285H22.2912H22.2539H22.2166H22.1793H22.142H22.1047H22.0674H22.0301H21.9928H21.9555H21.9182H21.881H21.8436H21.8064H21.7691H21.7318H21.6945H21.6572H21.6199H21.5826H21.5453H21.508H21.4707H21.4334H21.3961H21.3588H21.3215H21.2842H21.2469H21.2096H21.1723H21.1351H21.0978H21.0605H21.0232H20.9859H20.9486H20.9113H20.874H20.8367H20.7994H20.7621H20.7248H20.6875H20.6502H20.6129H20.5756H20.5383H20.501H20.4637H20.4265H20.3891H20.3519H20.3146H20.2773H20.24H20.2027H20.1654H20.1281H20.0908H20.0535H20.0162H19.9789H19.9416H19.9043H19.867H19.8297H19.7924H19.7552H19.7178H19.6806H19.6433H19.606H19.5687H19.5314H19.4941H19.4568H19.4195H19.3822H19.3449H19.3076H19.2703H19.233H19.1957H19.1584H19.1211H19.0838H19.0465H19.0092H18.972H18.9346H18.8974H18.8601H18.8228H18.7855H18.7482H18.7109H18.6736H18.6363H18.599H18.5617H18.5244H18.4872H18.4498H18.4126H18.3753H18.338H18.3007H18.2634H18.2261H18.1888H18.1515H18.1142H18.0769H18.0396H18.0023H17.965H17.9277H17.8477V18.2949C17.8738 18.3173 17.9005 18.3394 17.9277 18.3614C17.9401 18.3714 17.9525 18.3813 17.965 18.3912C17.9774 18.4009 17.9898 18.4106 18.0023 18.4202C18.0147 18.4297 18.0271 18.4392 18.0396 18.4486C18.0519 18.4578 18.0644 18.4669 18.0769 18.476C18.0892 18.485 18.1017 18.4939 18.1142 18.5028C18.1266 18.5116 18.139 18.5204 18.1515 18.5291L18.1888 18.5546C18.2011 18.563 18.2136 18.5712 18.2261 18.5795L18.2634 18.6038C18.2757 18.6118 18.2881 18.6198 18.3007 18.6277C18.313 18.6354 18.3255 18.6431 18.338 18.6508L18.3753 18.6735C18.3877 18.6809 18.4001 18.6884 18.4126 18.6957C18.4249 18.703 18.4374 18.7101 18.4498 18.7172L18.4872 18.7385L18.5244 18.7591L18.5617 18.7793C18.5741 18.786 18.5865 18.7927 18.599 18.7992C18.6114 18.8057 18.6239 18.8121 18.6363 18.8184L18.6736 18.8374L18.7109 18.856L18.7482 18.874C18.7606 18.8799 18.773 18.8859 18.7855 18.8918L18.8228 18.9091L18.8601 18.9261L18.8974 18.9426L18.9346 18.9589L18.972 18.9749L19.0092 18.9904L19.0465 19.0057L19.0838 19.0206L19.1211 19.0353L19.1584 19.0495C19.1708 19.0542 19.1832 19.059 19.1957 19.0636L19.233 19.0772C19.2454 19.0818 19.2578 19.0864 19.2703 19.0908C19.2826 19.0952 19.2952 19.0995 19.3076 19.1038L19.3449 19.1168L19.3822 19.1293C19.3946 19.1335 19.4069 19.1377 19.4195 19.1418C19.4318 19.1459 19.4443 19.1498 19.4568 19.1538L19.4941 19.1657L19.5314 19.1772L19.5687 19.1886L19.606 19.1996L19.6433 19.2105L19.6806 19.2211L19.7178 19.2316L19.7552 19.2417L19.7924 19.2517L19.8297 19.2615L19.867 19.2709L19.9043 19.2803L19.9416 19.2894L19.9789 19.2984L20.0162 19.307L20.0535 19.3156L20.0908 19.3239L20.1281 19.332L20.1654 19.3401L20.2027 19.3477L20.24 19.3555L20.2773 19.3628L20.3146 19.3701L20.3519 19.3771L20.3891 19.384L20.4265 19.3908L20.4637 19.3973L20.501 19.4037L20.5383 19.41L20.5756 19.416L20.6129 19.422L20.6502 19.4277L20.6875 19.4334L20.7248 19.4389L20.7621 19.4442L20.7994 19.4494L20.8367 19.4544L20.874 19.4593L20.9113 19.464L20.9486 19.4686L20.9859 19.4732L21.0232 19.4775L21.0605 19.4816L21.0978 19.4858L21.1351 19.4897L21.1723 19.4935L21.2096 19.4972L21.2469 19.5007L21.2842 19.5042L21.3215 19.5075L21.3588 19.5107L21.3961 19.5138L21.4334 19.5167L21.4707 19.5195L21.508 19.5224L21.5453 19.5249L21.5826 19.5274L21.6199 19.5299L21.6572 19.5321L21.6945 19.5342L21.7318 19.5364L21.7691 19.5382L21.8064 19.54L21.8436 19.5419L21.881 19.5434L21.9182 19.5449L21.9555 19.5464L21.9928 19.5477L22.0301 19.5489L22.0674 19.5501L22.1047 19.551L22.142 19.552L22.1793 19.5529L22.2166 19.5536L22.2539 19.5542L22.2912 19.5548L22.3285 19.5552L22.3658 19.5555L22.4031 19.5559L22.4403 19.556L22.4777 19.5561L22.5149 19.5562L22.5523 19.5561L22.5895 19.5558L22.6268 19.5556L22.6642 19.5553L22.7014 19.5548L22.7387 19.5543L22.776 19.5538L22.8133 19.5531L22.8506 19.5523L22.8879 19.5515L22.9252 19.5506L22.9625 19.5496L22.9998 19.5485L23.0371 19.5474L23.0744 19.5461L23.1117 19.5448L23.149 19.5435L23.1863 19.542L23.2235 19.5404L23.2609 19.5389L23.2791 19.5381L23.2981 19.5372L23.3355 19.5354L23.3727 19.5334L23.41 19.5313L23.4473 19.5291L23.4846 19.5268L23.5219 19.5243L23.5592 19.5217L23.5965 19.519L23.6338 19.5162L23.6711 19.5132L23.7084 19.5102L23.7457 19.507L23.783 19.5037L23.8203 19.5003L23.8576 19.4968L23.8949 19.4932L23.9322 19.4895L23.9695 19.4857L24.0068 19.4818L24.044 19.4778L24.0813 19.4737L24.1186 19.4694L24.1559 19.4651L24.1932 19.4607L24.2305 19.4562L24.2678 19.4517L24.3051 19.447L24.3424 19.4422L24.3797 19.4374L24.417 19.4324L24.4543 19.4274L24.4916 19.4223L24.5289 19.4171L24.5662 19.4118L24.6035 19.4064L24.6408 19.401L24.678 19.3954L24.7153 19.3898L24.7526 19.3841L24.7899 19.3784L24.8272 19.3725L24.8645 19.3666L24.9018 19.3606L24.9391 19.3545L24.9764 19.3483L25.0137 19.3421L25.051 19.3358L25.0883 19.3294L25.1256 19.3229L25.1629 19.3164L25.2002 19.3097L25.2375 19.303L25.2748 19.2963L25.3121 19.2895L25.3493 19.2826L25.3867 19.2756L25.4239 19.2685L25.4612 19.2614L25.4985 19.2542L25.5358 19.2469L25.5731 19.2396L25.6104 19.2322L25.6477 19.2247L25.685 19.2171L25.7223 19.2094L25.7596 19.2017L25.7969 19.1939L25.8342 19.1861L25.8715 19.1781L25.9088 19.1701L25.9461 19.162L25.9834 19.1538L26.0206 19.1455L26.058 19.1372L26.0952 19.1287L26.1325 19.1202L26.1699 19.1115L26.2071 19.1028L26.2445 19.0939L26.2817 19.0849L26.3188 19.0758V17.4375L26.2817 17.456L26.2445 17.4744L26.2071 17.4927L26.1699 17.5108L26.1325 17.5287L26.0952 17.5465L26.058 17.564L26.0206 17.5814L25.9834 17.5986L25.9461 17.6157L25.9088 17.6325L25.8715 17.6492L25.8342 17.6656L25.7969 17.6818L25.7596 17.6979L25.7223 17.7138L25.685 17.7294L25.6477 17.7449L25.6104 17.7602L25.5731 17.7752L25.5358 17.7901L25.4985 17.8048L25.4612 17.8192L25.4239 17.8334L25.3867 17.8475L25.3493 17.8613L25.3121 17.8749L25.2748 17.8883L25.2375 17.9015L25.2002 17.9145L25.1629 17.9272L25.1256 17.9397L25.0883 17.9521L25.051 17.9642L25.0137 17.9761L24.9764 17.9879L24.9391 17.9993L24.9018 18.0106L24.8645 18.0217L24.8272 18.0325L24.7899 18.0432L24.7526 18.0536L24.7153 18.0638L24.678 18.0738L24.6408 18.0836L24.6035 18.0932L24.5662 18.1025L24.5289 18.1117L24.4916 18.1206L24.4543 18.1294L24.417 18.1379L24.3797 18.1462L24.3424 18.1543L24.3051 18.1622L24.2678 18.1699L24.2305 18.1774L24.1932 18.1847L24.1559 18.1917L24.1186 18.1986L24.0813 18.2052L24.044 18.2117L24.0068 18.2179L23.9695 18.2239L23.9322 18.2298L23.8949 18.2354L23.8576 18.2409L23.8203 18.2461L23.783 18.2511L23.7457 18.2559L23.7084 18.2606L23.6711 18.265L23.6338 18.2693L23.5965 18.2733L23.5592 18.2772L23.5219 18.2808L23.4846 18.2842L23.4473 18.2875L23.41 18.2905L23.3874 18.2923L23.3727 18.2933L23.3355 18.2958L23.2981 18.2983L23.2609 18.3003L23.2235 18.3022L23.1863 18.304L23.149 18.3052L23.1117 18.3064L23.0744 18.3072L23.0371 18.3077L22.9998 18.3082C22.9873 18.3083 22.9749 18.3081 22.9625 18.3081L22.9252 18.308L22.8879 18.3074L22.8506 18.3066L22.8133 18.3056C22.8008 18.3052 22.7884 18.3046 22.776 18.3041C22.7636 18.3036 22.7511 18.3032 22.7387 18.3026L22.7014 18.3005L22.6642 18.2983L22.6268 18.2957L22.5895 18.2927C22.5771 18.2917 22.5646 18.2909 22.5523 18.2897C22.5397 18.2886 22.5274 18.2872 22.5149 18.286L22.4777 18.2822L22.4403 18.2779L22.4031 18.2733L22.3658 18.2684L22.3285 18.2631C22.316 18.2613 22.3035 18.2595 22.2912 18.2576C22.2787 18.2556 22.2663 18.2535 22.2539 18.2514C22.2415 18.2493 22.2289 18.2474 22.2166 18.2452C22.2041 18.243 22.1917 18.2405 22.1793 18.2382C22.1669 18.2359 22.1543 18.2337 22.142 18.2312C22.1295 18.2288 22.1172 18.226 22.1047 18.2234C22.0923 18.2208 22.0798 18.2183 22.0674 18.2156C22.0549 18.2128 22.0425 18.2099 22.0301 18.207L21.9928 18.1983C21.9803 18.1952 21.9679 18.192 21.9555 18.1888C21.9431 18.1856 21.9306 18.1825 21.9182 18.1792C21.9057 18.1758 21.8933 18.1723 21.881 18.1688C21.8685 18.1653 21.856 18.1618 21.8436 18.1582C21.8311 18.1545 21.8187 18.1507 21.8064 18.1469C21.7939 18.143 21.7814 18.1392 21.7691 18.1352C21.7566 18.1312 21.7442 18.1271 21.7318 18.1229C21.7193 18.1187 21.7068 18.1145 21.6945 18.1102C21.6819 18.1059 21.6696 18.1013 21.6572 18.0968C21.6447 18.0922 21.6322 18.0877 21.6199 18.0831C21.6074 18.0783 21.595 18.0733 21.5826 18.0684C21.5701 18.0635 21.5576 18.0586 21.5453 18.0536C21.5327 18.0484 21.5204 18.043 21.508 18.0376C21.4955 18.0323 21.483 18.027 21.4707 18.0215C21.4581 18.0159 21.4458 18.01 21.4334 18.0043C21.4209 17.9985 21.4084 17.9926 21.3961 17.9867C21.3836 17.9806 21.3712 17.9744 21.3588 17.9682C21.3463 17.9619 21.3339 17.9555 21.3215 17.949C21.3091 17.9425 21.2965 17.936 21.2842 17.9293C21.2716 17.9224 21.2593 17.9154 21.2469 17.9083C21.2345 17.9012 21.2219 17.8942 21.2096 17.8869C21.1971 17.8795 21.1847 17.8719 21.1723 17.8644C21.1598 17.8567 21.1474 17.8488 21.1351 17.8409C21.1226 17.833 21.11 17.8251 21.0978 17.8169C21.0852 17.8085 21.0729 17.7999 21.0605 17.7913C21.0479 17.7826 21.0355 17.7738 21.0232 17.7649C21.0107 17.7559 20.9981 17.7469 20.9859 17.7377C20.9733 17.7282 20.9609 17.7185 20.9486 17.7088C20.936 17.699 20.9236 17.689 20.9113 17.679C20.8988 17.6687 20.8862 17.6585 20.874 17.648C20.8614 17.6372 20.849 17.6262 20.8367 17.6152C20.8241 17.604 20.8117 17.5926 20.7994 17.581C20.7868 17.5693 20.7744 17.5575 20.7621 17.5455C20.7496 17.5332 20.737 17.5209 20.7248 17.5084C20.7122 17.4954 20.6998 17.4822 20.6875 17.469C20.6749 17.4554 20.6625 17.4416 20.6502 17.4277C20.6376 17.4133 20.6252 17.3989 20.6129 17.3843C20.6003 17.3692 20.5879 17.354 20.5756 17.3386C20.563 17.3227 20.5505 17.3065 20.5383 17.2903C20.5257 17.2734 20.5132 17.2564 20.501 17.2391C20.4884 17.2212 20.4759 17.2031 20.4637 17.1847C20.451 17.1655 20.4386 17.1461 20.4265 17.1265C20.4137 17.1059 20.4013 17.0851 20.3891 17.0641C20.3764 17.0419 20.364 17.0194 20.3519 16.9967C20.339 16.9726 20.3266 16.9482 20.3146 16.9236C20.3017 16.8973 20.2893 16.8706 20.2773 16.8437C20.2644 16.8148 20.2518 16.7855 20.24 16.7558C20.2268 16.7229 20.2146 16.6894 20.2027 16.6555C20.1895 16.618 20.177 16.58 20.1654 16.5414C20.1519 16.4965 20.1395 16.451 20.1281 16.4046C20.114 16.347 20.1016 16.2881 20.0908 16.2281C20.0747 16.1392 20.0622 16.0478 20.0535 15.9539C20.0435 15.8455 20.0383 15.7338 20.0383 15.6189C20.0383 15.5039 20.0435 15.3922 20.0535 15.2837C20.0622 15.1898 20.0747 15.0984 20.0908 15.0094C20.1016 14.9494 20.114 14.8904 20.1281 14.8327C20.1395 14.7864 20.1519 14.7408 20.1654 14.696C20.177 14.6573 20.1895 14.6192 20.2027 14.5817C20.2146 14.5479 20.2268 14.5143 20.24 14.4814C20.2518 14.4517 20.2644 14.4224 20.2773 14.3934C20.2893 14.3665 20.3017 14.3399 20.3146 14.3136C20.3266 14.2889 20.339 14.2644 20.3519 14.2404C20.364 14.2177 20.3764 14.1952 20.3891 14.173C20.4013 14.1519 20.4137 14.1311 20.4265 14.1105C20.4386 14.0909 20.451 14.0715 20.4637 14.0523C20.4759 14.0339 20.4884 14.0158 20.501 13.9978C20.5132 13.9806 20.5257 13.9636 20.5383 13.9467C20.5505 13.9304 20.563 13.9143 20.5756 13.8983C20.5879 13.8829 20.6003 13.8677 20.6129 13.8527C20.6252 13.838 20.6376 13.8236 20.6502 13.8092C20.6625 13.7953 20.6749 13.7815 20.6875 13.7679C20.6998 13.7546 20.7122 13.7414 20.7248 13.7284C20.737 13.7159 20.7496 13.7036 20.7621 13.6913C20.7744 13.6793 20.7868 13.6675 20.7994 13.6558C20.8117 13.6443 20.8241 13.6328 20.8367 13.6216C20.849 13.6106 20.8614 13.5995 20.874 13.5887C20.8862 13.5783 20.8988 13.568 20.9113 13.5578C20.9236 13.5477 20.936 13.5378 20.9486 13.5279C20.9609 13.5182 20.9733 13.5085 20.9859 13.499C20.9981 13.4898 21.0107 13.4808 21.0232 13.4718C21.0355 13.4628 21.0479 13.4541 21.0605 13.4454C21.0729 13.4368 21.0852 13.4282 21.0978 13.4198C21.11 13.4116 21.1226 13.4037 21.1351 13.3957C21.1474 13.3878 21.1598 13.38 21.1723 13.3723C21.1847 13.3647 21.1971 13.3572 21.2096 13.3498C21.2219 13.3425 21.2345 13.3354 21.2469 13.3283C21.2593 13.3213 21.2716 13.3143 21.2842 13.3074C21.2965 13.3007 21.3091 13.2942 21.3215 13.2876C21.3339 13.2812 21.3463 13.2747 21.3588 13.2684C21.3712 13.2622 21.3836 13.256 21.3961 13.25C21.4084 13.244 21.4209 13.2382 21.4334 13.2323C21.4458 13.2266 21.4581 13.2207 21.4707 13.2151C21.483 13.2096 21.4955 13.2043 21.508 13.199C21.5204 13.1936 21.5327 13.1882 21.5453 13.183C21.5576 13.178 21.5701 13.1731 21.5826 13.1682C21.595 13.1632 21.6074 13.1583 21.6199 13.1535C21.6322 13.1488 21.6447 13.1443 21.6572 13.1398C21.6696 13.1353 21.6819 13.1307 21.6945 13.1263C21.7068 13.122 21.7193 13.1178 21.7318 13.1136C21.7442 13.1095 21.7566 13.1053 21.7691 13.1013C21.7814 13.0974 21.7939 13.0935 21.8064 13.0897C21.8187 13.0859 21.8311 13.0821 21.8436 13.0784L21.881 13.0677C21.8933 13.0643 21.9057 13.0607 21.9182 13.0574C21.9306 13.0541 21.9431 13.0509 21.9555 13.0477C21.9679 13.0446 21.9803 13.0413 21.9928 13.0383L22.0301 13.0295C22.0425 13.0267 22.0549 13.0237 22.0674 13.021C22.0798 13.0182 22.0923 13.0157 22.1047 13.0131C22.1172 13.0105 22.1295 13.0078 22.142 13.0053C22.1543 13.0028 22.1669 13.0006 22.1793 12.9983C22.1917 12.996 22.2041 12.9935 22.2166 12.9913C22.2289 12.9891 22.2415 12.9872 22.2539 12.9851C22.2663 12.983 22.2787 12.9809 22.2912 12.9789L22.3285 12.9734L22.3658 12.9681L22.4031 12.9631L22.4403 12.9586L22.4777 12.9543L22.5149 12.9505C22.5274 12.9493 22.5397 12.9479 22.5523 12.9468C22.5646 12.9456 22.5771 12.9448 22.5895 12.9437L22.6268 12.9408L22.6642 12.9382L22.7014 12.936L22.7387 12.9339C22.7511 12.9333 22.7636 12.9329 22.776 12.9324C22.7884 12.9319 22.8008 12.9313 22.8133 12.9309L22.8506 12.9299L22.8879 12.9291L22.9252 12.9285L22.9625 12.9284C22.9749 12.9284 22.9873 12.9282 22.9998 12.9283L23.0371 12.9288L23.0744 12.9293L23.1117 12.9301L23.149 12.9313L23.1863 12.9325L23.2235 12.9343L23.2609 12.9362L23.2981 12.9382L23.3355 12.9406L23.3727 12.9432L23.3874 12.9441L23.41 12.9459L23.4473 12.9489L23.4846 12.9521L23.5219 12.9556L23.5592 12.9591L23.5965 12.9629L23.6338 12.9669L23.6711 12.9711L23.7084 12.9754L23.7457 12.98L23.783 12.9848L23.8203 12.9897L23.8576 12.9949L23.8949 13.0003L23.9322 13.0058L23.9695 13.0116L24.0068 13.0176L24.044 13.0237L24.0813 13.0301L24.1186 13.0367L24.1559 13.0435L24.1932 13.0505L24.2305 13.0577L24.2678 13.0651L24.3051 13.0727L24.3424 13.0806L24.3797 13.0886L24.417 13.0969L24.4543 13.1053L24.4916 13.114L24.5289 13.1229L24.5662 13.132L24.6035 13.1413L24.6408 13.1509L24.678 13.1606L24.7153 13.1706L24.7526 13.1808L24.7899 13.1912L24.8272 13.2018L24.8645 13.2126L24.9018 13.2237L24.9391 13.2349L24.9764 13.2464L25.0137 13.2581L25.051 13.27L25.0883 13.2822L25.1256 13.2945L25.1629 13.3071L25.2002 13.3199L25.2375 13.3328L25.2748 13.3461L25.3121 13.3595L25.3493 13.3732L25.3867 13.3871L25.4239 13.4012L25.4612 13.4155L25.4985 13.43L25.5358 13.4447L25.5731 13.4596L25.6104 13.4748L25.6477 13.4901L25.685 13.5057L25.7223 13.5215L25.7596 13.5375L25.7969 13.5536L25.8342 13.57L25.8715 13.5866L25.9088 13.6034L25.9461 13.6203L25.9834 13.6375L26.0206 13.6549L26.058 13.6724L26.0952 13.6901L26.1325 13.7081L26.1699 13.7261L26.2071 13.7444L26.2445 13.7629L26.2817 13.7815L26.3188 13.8001V12.1607L26.2817 12.1516L26.2445 12.1426L26.2071 12.1337L26.1699 12.1249L26.1325 12.1163L26.0952 12.1078L26.058 12.0993L26.0206 12.091L25.9834 12.0827L25.9461 12.0745L25.9088 12.0664L25.8715 12.0584L25.8342 12.0504L25.7969 12.0426L25.7596 12.0348L25.7223 12.0271L25.685 12.0195L25.6477 12.0119L25.6104 12.0044L25.5731 11.997L25.5358 11.9897L25.4985 11.9824L25.4612 11.9752L25.4239 11.9681L25.3867 11.961L25.3493 11.9541L25.3121 11.9471L25.2748 11.9403L25.2375 11.9336L25.2002 11.9269L25.1629 11.9203L25.1256 11.9137L25.0883 11.9073L25.051 11.9009L25.0137 11.8946L24.9764 11.8884L24.9391 11.8822L24.9018 11.8761L24.8645 11.8702L24.8272 11.8642L24.7899 11.8584L24.7526 11.8526L24.7153 11.8469L24.678 11.8413L24.6408 11.8358L24.6035 11.8303L24.5662 11.825L24.5289 11.8197L24.4916 11.8145L24.4543 11.8094L24.417 11.8044L24.3797 11.7995L24.3424 11.7947L24.3051 11.7899L24.2678 11.7852L24.2305 11.7806L24.1932 11.7762L24.1559 11.7718L24.1186 11.7675L24.0813 11.7633L24.044 11.7592L24.0068 11.7552L23.9695 11.7513L23.9322 11.7475L23.8949 11.7438L23.8576 11.7402L23.8203 11.7367L23.783 11.7334L23.7457 11.7301L23.7084 11.7269L23.6711 11.7239L23.6338 11.7209L23.5965 11.7182L23.5592 11.7154L23.5219 11.7129L23.4846 11.7104L23.4473 11.7082L23.41 11.7059L23.3727 11.7039L23.3355 11.7019L23.2981 11.7001L23.2791 11.6992L23.2609 11.6985L23.2235 11.6969L23.1863 11.6954L23.149 11.6938L23.1117 11.6925L23.0744 11.6912L23.0371 11.6899L22.9998 11.6888L22.9625 11.6878L22.9252 11.6867L22.8879 11.6858L22.8506 11.685L22.8133 11.6843L22.776 11.6835L22.7387 11.683L22.7014 11.6825L22.6642 11.682L22.6268 11.6817L22.5895 11.6815L22.5523 11.6813L22.5149 11.6812L22.4777 11.6813L22.4403 11.6813L22.4031 11.6814L22.3658 11.6818L22.3285 11.6822L22.2912 11.6825L22.2539 11.6832L22.2166 11.6838L22.1793 11.6845L22.142 11.6854L22.1047 11.6863L22.0674 11.6872L22.0301 11.6885L21.9928 11.6897L21.9555 11.6909L21.9182 11.6924L21.881 11.694L21.8436 11.6955L21.8064 11.6973L21.7691 11.6992L21.7318 11.701L21.6945 11.7032L21.6572 11.7053L21.6199 11.7075L21.5826 11.71L21.5453 11.7125L21.508 11.715L21.4707 11.7179L21.4334 11.7207L21.3961 11.7236L21.3588 11.7267L21.3215 11.7299L21.2842 11.7332L21.2469 11.7367L21.2096 11.7402L21.1723 11.7439L21.1351 11.7478L21.0978 11.7516L21.0605 11.7558L21.0232 11.76L20.9859 11.7643L20.9486 11.7688L20.9113 11.7734L20.874 11.7782L20.8367 11.7831L20.7994 11.7881L20.7621 11.7933L20.7248 11.7986L20.6875 11.8041L20.6502 11.8098L20.6129 11.8154L20.5756 11.8215L20.5383 11.8276L20.501 11.8338L20.4637 11.8402L20.4265 11.8467L20.3891 11.8535L20.3519 11.8604L20.3146 11.8675L20.2773 11.8748L20.24 11.8821L20.2027 11.8898L20.1654 11.8975L20.1281 11.9055L20.0908 11.9137L20.0535 11.922L20.0162 11.9305L19.9789 11.9391L19.9416 11.9482L19.9043 11.9572L19.867 11.9666L19.8297 11.9761L19.7924 11.9859L19.7552 11.9959L19.7178 12.0061L19.6806 12.0165L19.6433 12.0271L19.606 12.038L19.5687 12.049L19.5314 12.0605L19.4941 12.072L19.4568 12.0839C19.4443 12.0879 19.4318 12.0918 19.4195 12.0959L19.3822 12.1084C19.3698 12.1125 19.3572 12.1166 19.3449 12.1209L19.3076 12.1339L19.2703 12.1469C19.2578 12.1513 19.2454 12.156 19.233 12.1605C19.2206 12.165 19.2081 12.1695 19.1957 12.1741L19.1584 12.1882C19.146 12.193 19.1335 12.1976 19.1211 12.2024L19.0838 12.2172L19.0465 12.232L19.0092 12.2474L18.972 12.2629L18.9346 12.2789L18.8974 12.2952L18.8601 12.3117L18.8228 12.3288L18.7855 12.346C18.773 12.3519 18.7606 12.3579 18.7482 12.3638L18.7109 12.3819L18.6736 12.4005L18.6363 12.4194C18.6239 12.4258 18.6114 12.4322 18.599 12.4387C18.5865 12.4452 18.5741 12.4519 18.5617 12.4586L18.5244 12.4788L18.4872 12.4994C18.4746 12.5065 18.4622 12.5136 18.4498 12.5207C18.4374 12.5279 18.4249 12.535 18.4126 12.5422C18.4001 12.5496 18.3877 12.557 18.3753 12.5644C18.3627 12.572 18.3503 12.5796 18.338 12.5872C18.3255 12.5949 18.313 12.6026 18.3007 12.6103C18.2881 12.6182 18.2757 12.6262 18.2634 12.6342L18.2261 12.6585C18.2136 12.6668 18.2011 12.675 18.1888 12.6834L18.1515 12.709C18.139 12.7177 18.1266 12.7264 18.1142 12.7352C18.1017 12.7441 18.0892 12.7531 18.0769 12.7621C18.0644 12.7712 18.0519 12.7803 18.0396 12.7895C18.0271 12.7989 18.0147 12.8084 18.0023 12.8179C17.9898 12.8275 17.9774 12.8372 17.965 12.8469C17.9525 12.8568 17.9401 12.8667 17.9277 12.8767V12.8766Z" fill="#E10238"/>
</svg>
