<svg width="47" height="32" viewBox="0 0 47 32" fill="none" xmlns="http://www.w3.org/2000/svg">
<rect width="47" height="32" rx="4" fill="#FCFBFA"/>
<path d="M27.802 23.1816H19.4141V8.41016H27.802V23.1816Z" fill="#FF5F00"/>
<path d="M19.9506 15.7932C19.9506 12.7968 21.3824 10.1276 23.612 8.4075C21.9816 7.14967 19.9238 6.39891 17.6875 6.39891C12.3932 6.39891 8.10156 10.6048 8.10156 15.7932C8.10156 20.9816 12.3932 25.1875 17.6875 25.1875C19.9238 25.1875 21.9816 24.4367 23.612 23.1789C21.3824 21.4588 19.9506 18.7897 19.9506 15.7932Z" fill="#EB001B"/>
<path d="M39.1165 15.7932C39.1165 20.9816 34.8249 25.1875 29.5306 25.1875C27.2943 25.1875 25.2365 24.4367 23.6055 23.1789C25.8357 21.4588 27.2675 18.7897 27.2675 15.7932C27.2675 12.7968 25.8357 10.1276 23.6055 8.4075C25.2365 7.14967 27.2943 6.39891 29.5306 6.39891C34.8249 6.39891 39.1165 10.6048 39.1165 15.7932Z" fill="#F79E1B"/>
</svg>
