<svg width="46" height="32" viewBox="0 0 46 32" fill="none" xmlns="http://www.w3.org/2000/svg">
<rect width="46" height="32" rx="4" fill="#FCFBFA"/>
<path d="M20.4219 21.9467H17.3594L19.2749 10.7461H22.3373L20.4219 21.9467Z" fill="#15195A"/>
<path d="M31.5267 11.0198C30.9226 10.7932 29.9645 10.543 28.7798 10.543C25.7554 10.543 23.6257 12.0681 23.6126 14.2485C23.5875 15.8572 25.1375 16.7508 26.2967 17.2872C27.4816 17.8353 27.8843 18.193 27.8843 18.6816C27.8723 19.432 26.9269 19.7778 26.0452 19.7778C24.8224 19.7778 24.1673 19.5995 23.1717 19.1821L22.7684 19.0031L22.3398 21.5174C23.0581 21.8268 24.3815 22.1014 25.7554 22.1135C28.9689 22.1135 31.0609 20.612 31.0857 18.2884C31.0979 17.0133 30.2795 16.0364 28.515 15.238C27.4439 14.7255 26.7879 14.38 26.7879 13.8556C26.8005 13.3789 27.3427 12.8906 28.5519 12.8906C29.5475 12.8667 30.279 13.093 30.8332 13.3195L31.1102 13.4384L31.5267 11.0198Z" fill="#15195A"/>
<path fill-rule="evenodd" clip-rule="evenodd" d="M37.0091 10.7461H39.378L41.8487 21.9465H39.0131C39.0131 21.9465 38.7356 20.6596 38.6477 20.2664H34.7156C34.6019 20.5641 34.0728 21.9465 34.0728 21.9465H30.8594L35.4084 11.6754C35.7236 10.9485 36.2786 10.7461 37.0091 10.7461ZM36.8203 14.8448C36.8203 14.8448 35.8498 17.3352 35.5976 17.9787H38.1432C38.0172 17.4187 37.4373 14.7376 37.4373 14.7376L37.2233 13.7725C37.1331 14.021 37.0028 14.3627 36.9149 14.5932C36.8553 14.7494 36.8152 14.8545 36.8203 14.8448Z" fill="#15195A"/>
<path d="M14.8034 10.7461L11.8041 18.3838L11.4764 16.8348C10.9219 15.0474 9.18285 13.1055 7.24219 12.1399L9.9894 21.9348H13.228L18.0418 10.7461H14.8034Z" fill="#15195A"/>
<path d="M9.02073 10.7461H4.09338L4.04297 10.9724C7.88661 11.9019 10.4322 14.1423 11.478 16.8353L10.4069 11.6876C10.2305 10.9722 9.68861 10.7697 9.02073 10.7461Z" fill="#FAA61A"/>
</svg>
